<?xml version="1.0" standalone="no"?><!DOCTYPE svg PUBLIC "-//W3C//DTD SVG 1.1//EN" "http://www.w3.org/Graphics/SVG/1.1/DTD/svg11.dtd"><svg class="icon" width="200px" height="200.00px" viewBox="0 0 1024 1024" version="1.1" xmlns="http://www.w3.org/2000/svg"><path fill="#ffffff" d="M512 892.68816472c-179.30561336 0-319.74612799-63.19470985-319.74612799-143.80778519V275.09119949c0-80.63902496 140.44175032-143.7818356 319.74612799-143.78183559s319.74612799 63.14404634 319.74612799 143.78183559v473.78918004c0 80.61183966-140.44175032 143.8090209-319.74612799 143.80902089z m0-730.94114625c-173.04434365 0-289.31588759 58.61275048-289.31588759 113.35035948v473.78918005c0 54.74008041 116.26907255 113.32193849 289.31588759 113.32193848s289.31588759-58.58309378 289.31588759-113.32193848V275.09737795c0-54.74008041-116.26907255-113.35035948-289.31588759-113.35035948z m0 568.49783536c-179.30561336 0-319.74612799-63.14404634-319.74612799-143.75341459 0-8.40273023 6.78891175-15.2435412 15.2151202-15.24354121 8.42867984 0 15.21635589 6.84081097 15.2163559 15.24354121 0 54.7388447 116.26907255 113.32193849 289.31588759 113.32193849s289.31588759-58.58309378 289.31588758-113.32193849c0-8.40273023 6.78520467-15.2435412 15.21635589-15.24354121 8.42497276 0 15.21512021 6.84081097 15.21512022 15.24354121 0.00370709 80.61183966-140.44051463 143.75341459-319.7448923 143.75341459z m0-162.44701798c-179.30561336 0-319.74612799-63.14281064-319.74612799-143.75341459 0-8.40273023 6.78891175-15.24230551 15.2151202-15.24230551 8.42867984 0 15.21635589 6.83957527 15.2163559 15.24230551 0 54.7388447 116.26907255 113.32317419 289.31588759 113.32317419s289.31588759-58.58432949 289.31588758-113.32317419c0-8.40273023 6.78520467-15.24230551 15.21635589-15.24230551 8.42497276 0 15.21512021 6.83957527 15.21512022 15.24230551 0.00370709 80.61183966-140.44051463 143.75341459-319.7448923 143.75341459z m0-162.4408395c-179.30561336 0-319.74612799-63.14404634-319.74612799-143.7830713 0-8.42744415 6.78891175-15.21512021 15.2151202-15.21512019a15.18422782 15.18422782 0 0 1 15.2163559 15.21512019c0 54.74008041 116.26907255 113.35035948 289.31588759 113.3503595s289.31588759-58.61275048 289.31588758-113.3503595c0-8.42744415 6.78520467-15.21512021 15.21635589-15.21512019a15.18669921 15.18669921 0 0 1 15.21512022 15.21512019c0.00370709 80.64026065-140.44051463 143.78307129-319.7448923 143.7830713z" /></svg>