<svg width="44" height="44" viewBox="0 0 44 44" fill="none" xmlns="http://www.w3.org/2000/svg">
<path d="M11.5 10.75V13.75C11.5 14.3023 11.0523 14.75 10.5 14.75H4.5C3.94772 14.75 3.5 14.3023 3.5 13.75V11.1832C3.5 10.9068 3.61441 10.6427 3.81606 10.4537L11.2115 3.52046C11.3969 3.3467 11.6414 3.25 11.8954 3.25H33C33.5523 3.25 34 3.69772 34 4.25V16.75V21.25" stroke="#3190C9" stroke-width="2.6"/>
<path d="M34 37.25V39.75C34 40.3023 33.5523 40.75 33 40.75H5.5C4.94771 40.75 4.5 40.3023 4.5 39.75V20.25" stroke="#3190C9" stroke-width="2.6"/>
<path d="M8.48 24.254H12.134C13.758 24.254 14.976 24.702 15.816 25.598C16.614 26.438 17.02 27.656 17.02 29.252C17.02 30.834 16.614 32.052 15.816 32.906C14.976 33.802 13.758 34.25 12.134 34.25H8.48V24.254ZM10.118 25.654V32.85H11.826C13.072 32.85 13.982 32.556 14.556 31.982C15.116 31.394 15.396 30.484 15.396 29.252C15.396 27.992 15.116 27.068 14.556 26.508C13.982 25.934 13.072 25.654 11.826 25.654H10.118ZM17.0862 24.254H18.9342L20.8102 31.856H20.8662L22.8402 24.254H24.5342L26.5082 31.856H26.5642L28.4402 24.254H30.2882L27.4042 34.25H25.6682L23.7222 26.732H23.6662L21.7062 34.25H19.9562L17.0862 24.254ZM35.1199 24.058C36.4079 24.058 37.4159 24.338 38.1579 24.912C38.8719 25.472 39.3199 26.298 39.5019 27.418H37.8499C37.7099 26.774 37.4019 26.298 36.9539 25.976C36.4919 25.654 35.8759 25.5 35.1199 25.5C34.1819 25.5 33.4399 25.808 32.8939 26.452C32.2919 27.124 31.9979 28.062 31.9979 29.294C31.9979 30.47 32.2639 31.38 32.7959 32.01C33.3699 32.682 34.2659 33.018 35.4839 33.018C35.9599 33.018 36.4079 32.962 36.8279 32.85C37.2199 32.738 37.5699 32.584 37.9059 32.388V30.33H35.2599V28.93H39.5439V33.158C39.0119 33.578 38.4099 33.886 37.7239 34.11C36.9959 34.334 36.1979 34.446 35.3019 34.446C33.7059 34.446 32.4739 33.942 31.5919 32.934C30.7659 31.996 30.3599 30.778 30.3599 29.294C30.3599 27.796 30.7659 26.564 31.5919 25.598C32.4599 24.562 33.6359 24.058 35.1199 24.058Z" fill="#3190C9"/>
<path d="M8.48 24.254V24.054H8.28V24.254H8.48ZM15.816 25.598L15.6701 25.7348L15.671 25.7357L15.816 25.598ZM15.816 32.906L15.9619 33.0428L15.9621 33.0425L15.816 32.906ZM8.48 34.25H8.28V34.45H8.48V34.25ZM10.118 25.654V25.454H9.918V25.654H10.118ZM10.118 32.85H9.918V33.05H10.118V32.85ZM14.556 31.982L14.6975 32.1235L14.7008 32.1199L14.556 31.982ZM14.556 26.508L14.4146 26.6494L14.4146 26.6494L14.556 26.508ZM8.48 24.454H12.134V24.054H8.48V24.454ZM12.134 24.454C13.7208 24.454 14.8787 24.8906 15.6701 25.7348L15.9619 25.4612C15.0733 24.5134 13.7952 24.054 12.134 24.054V24.454ZM15.671 25.7357C16.4226 26.5269 16.82 27.6885 16.82 29.252H17.22C17.22 27.6235 16.8054 26.3491 15.961 25.4602L15.671 25.7357ZM16.82 29.252C16.82 30.8007 16.423 31.9635 15.6699 32.7695L15.9621 33.0425C16.805 32.1405 17.22 30.8673 17.22 29.252H16.82ZM15.6701 32.7692C14.8787 33.6134 13.7208 34.05 12.134 34.05V34.45C13.7952 34.45 15.0733 33.9906 15.9619 33.0428L15.6701 32.7692ZM12.134 34.05H8.48V34.45H12.134V34.05ZM8.68 34.25V24.254H8.28V34.25H8.68ZM9.918 25.654V32.85H10.318V25.654H9.918ZM10.118 33.05H11.826V32.65H10.118V33.05ZM11.826 33.05C13.0985 33.05 14.0706 32.7503 14.6974 32.1234L14.4146 31.8406C13.8934 32.3617 13.0455 32.65 11.826 32.65V33.05ZM14.7008 32.1199C15.3108 31.4795 15.596 30.5094 15.596 29.252H15.196C15.196 30.4586 14.9212 31.3085 14.4112 31.8441L14.7008 32.1199ZM15.596 29.252C15.596 27.97 15.3123 26.9814 14.6974 26.3666L14.4146 26.6494C14.9197 27.1546 15.196 28.014 15.196 29.252H15.596ZM14.6974 26.3666C14.0695 25.7386 13.096 25.454 11.826 25.454V25.854C13.048 25.854 13.8945 26.1294 14.4146 26.6494L14.6974 26.3666ZM11.826 25.454H10.118V25.854H11.826V25.454ZM17.0862 24.254V24.054H16.8207L16.8939 24.3092L17.0862 24.254ZM18.9342 24.254L19.1283 24.2061L19.0908 24.054H18.9342V24.254ZM20.8102 31.856L20.616 31.9039L20.6535 32.056H20.8102V31.856ZM20.8662 31.856V32.056H21.0209L21.0598 31.9063L20.8662 31.856ZM22.8402 24.254V24.054H22.6855L22.6466 24.2037L22.8402 24.254ZM24.5342 24.254L24.7278 24.2037L24.6889 24.054H24.5342V24.254ZM26.5082 31.856L26.3146 31.9063L26.3535 32.056H26.5082V31.856ZM26.5642 31.856V32.056H26.7208L26.7583 31.9039L26.5642 31.856ZM28.4402 24.254V24.054H28.2835L28.246 24.2061L28.4402 24.254ZM30.2882 24.254L30.4803 24.3094L30.554 24.054H30.2882V24.254ZM27.4042 34.25V34.45H27.5546L27.5963 34.3054L27.4042 34.25ZM25.6682 34.25L25.4746 34.3001L25.5133 34.45H25.6682V34.25ZM23.7222 26.732L23.9158 26.6819L23.877 26.532H23.7222V26.732ZM23.6662 26.732V26.532H23.5116L23.4726 26.6815L23.6662 26.732ZM21.7062 34.25V34.45H21.8607L21.8997 34.3005L21.7062 34.25ZM19.9562 34.25L19.7639 34.3052L19.8055 34.45H19.9562V34.25ZM17.0862 24.454H18.9342V24.054H17.0862V24.454ZM18.74 24.3019L20.616 31.9039L21.0043 31.8081L19.1283 24.2061L18.74 24.3019ZM20.8102 32.056H20.8662V31.656H20.8102V32.056ZM21.0598 31.9063L23.0338 24.3043L22.6466 24.2037L20.6726 31.8057L21.0598 31.9063ZM22.8402 24.454H24.5342V24.054H22.8402V24.454ZM24.3406 24.3043L26.3146 31.9063L26.7018 31.8057L24.7278 24.2037L24.3406 24.3043ZM26.5082 32.056H26.5642V31.656H26.5082V32.056ZM26.7583 31.9039L28.6343 24.3019L28.246 24.2061L26.37 31.8081L26.7583 31.9039ZM28.4402 24.454H30.2882V24.054H28.4402V24.454ZM30.096 24.1986L27.212 34.1946L27.5963 34.3054L30.4803 24.3094L30.096 24.1986ZM27.4042 34.05H25.6682V34.45H27.4042V34.05ZM25.8618 34.1999L23.9158 26.6819L23.5286 26.7821L25.4746 34.3001L25.8618 34.1999ZM23.7222 26.532H23.6662V26.932H23.7222V26.532ZM23.4726 26.6815L21.5126 34.1995L21.8997 34.3005L23.8597 26.7825L23.4726 26.6815ZM21.7062 34.05H19.9562V34.45H21.7062V34.05ZM20.1484 34.1948L17.2784 24.1988L16.8939 24.3092L19.7639 34.3052L20.1484 34.1948ZM38.1579 24.912L38.2814 24.7546L38.2803 24.7538L38.1579 24.912ZM39.5019 27.418V27.618H39.737L39.6993 27.3859L39.5019 27.418ZM37.8499 27.418L37.6545 27.4605L37.6887 27.618H37.8499V27.418ZM36.9539 25.976L37.0707 25.8136L37.0683 25.8119L36.9539 25.976ZM32.8939 26.452L33.0429 26.5855L33.0465 26.5813L32.8939 26.452ZM32.7959 32.01L32.6431 32.139L32.6438 32.1399L32.7959 32.01ZM36.8279 32.85L36.8795 33.0433L36.8829 33.0423L36.8279 32.85ZM37.9059 32.388L38.0067 32.5608L38.1059 32.5029V32.388H37.9059ZM37.9059 30.33H38.1059V30.13H37.9059V30.33ZM35.2599 30.33H35.0599V30.53H35.2599V30.33ZM35.2599 28.93V28.73H35.0599V28.93H35.2599ZM39.5439 28.93H39.7439V28.73H39.5439V28.93ZM39.5439 33.158L39.6679 33.315L39.7439 33.2549V33.158H39.5439ZM37.7239 34.11L37.7827 34.3012L37.786 34.3001L37.7239 34.11ZM31.5919 32.934L31.7424 32.8023L31.742 32.8018L31.5919 32.934ZM31.5919 25.598L31.7439 25.728L31.7452 25.7264L31.5919 25.598ZM35.1199 24.258C36.3807 24.258 37.34 24.5321 38.0355 25.0702L38.2803 24.7538C37.4918 24.1439 36.4352 23.858 35.1199 23.858V24.258ZM38.0345 25.0694C38.7004 25.5917 39.1286 26.3678 39.3045 27.4501L39.6993 27.3859C39.5112 26.2282 39.0434 25.3523 38.2813 24.7546L38.0345 25.0694ZM39.5019 27.218H37.8499V27.618H39.5019V27.218ZM38.0454 27.3755C37.8961 26.689 37.5634 26.1678 37.0706 25.8136L36.8372 26.1384C37.2405 26.4282 37.5237 26.859 37.6545 27.4605L38.0454 27.3755ZM37.0683 25.8119C36.5617 25.4588 35.9009 25.3 35.1199 25.3V25.7C35.851 25.7 36.4222 25.8492 36.8396 26.1401L37.0683 25.8119ZM35.1199 25.3C34.133 25.3 33.3313 25.6269 32.7414 26.3227L33.0465 26.5813C33.5485 25.9891 34.2309 25.7 35.1199 25.7V25.3ZM32.745 26.3185C32.0995 27.039 31.7979 28.0313 31.7979 29.294H32.1979C32.1979 28.0927 32.4843 27.209 33.0429 26.5854L32.745 26.3185ZM31.7979 29.294C31.7979 30.4971 32.0698 31.4601 32.6431 32.139L32.9487 31.881C32.4581 31.2999 32.1979 30.4429 32.1979 29.294H31.7979ZM32.6438 32.1399C33.2687 32.8714 34.2306 33.218 35.4839 33.218V32.818C34.3013 32.818 33.4712 32.4926 32.948 31.8801L32.6438 32.1399ZM35.4839 33.218C35.9757 33.218 36.4411 33.1601 36.8795 33.0432L36.7764 32.6568C36.3747 32.7639 35.9442 32.818 35.4839 32.818V33.218ZM36.8829 33.0423C37.2919 32.9254 37.6573 32.7646 38.0067 32.5608L37.8051 32.2152C37.4826 32.4034 37.1479 32.5506 36.773 32.6577L36.8829 33.0423ZM38.1059 32.388V30.33H37.7059V32.388H38.1059ZM37.9059 30.13H35.2599V30.53H37.9059V30.13ZM35.4599 30.33V28.93H35.0599V30.33H35.4599ZM35.2599 29.13H39.5439V28.73H35.2599V29.13ZM39.3439 28.93V33.158H39.7439V28.93H39.3439ZM39.42 33.001C38.909 33.4044 38.3287 33.7021 37.6618 33.9199L37.786 34.3001C38.4911 34.0699 39.1148 33.7516 39.6679 33.315L39.42 33.001ZM37.6651 33.9188C36.9589 34.1361 36.1811 34.246 35.3019 34.246V34.646C36.2148 34.646 37.0329 34.5319 37.7827 34.3012L37.6651 33.9188ZM35.3019 34.246C33.7518 34.246 32.5793 33.7587 31.7424 32.8023L31.4414 33.0657C32.3685 34.1253 33.66 34.646 35.3019 34.646V34.246ZM31.742 32.8018C30.9546 31.9076 30.5599 30.74 30.5599 29.294H30.1599C30.1599 30.816 30.5772 32.0844 31.4418 33.0662L31.742 32.8018ZM30.5599 29.294C30.5599 27.8339 30.9547 26.651 31.7439 25.728L31.4399 25.468C30.5771 26.477 30.1599 27.7581 30.1599 29.294H30.5599ZM31.7452 25.7264C32.5703 24.7417 33.687 24.258 35.1199 24.258V23.858C33.5849 23.858 32.3495 24.3823 31.4386 25.4696L31.7452 25.7264Z" fill="#3190C9"/>
</svg>
