<svg width="44" height="44" viewBox="0 0 44 44" fill="none" xmlns="http://www.w3.org/2000/svg">
<path d="M11.5 10.75V13.75C11.5 14.3023 11.0523 14.75 10.5 14.75H4.5C3.94772 14.75 3.5 14.3023 3.5 13.75V11.1832C3.5 10.9068 3.61441 10.6427 3.81606 10.4537L11.2115 3.52046C11.3969 3.3467 11.6414 3.25 11.8954 3.25H33C33.5523 3.25 34 3.69772 34 4.25V16.75V21.25" stroke="#207336" stroke-width="2.6"/>
<path d="M34 37.25V39.75C34 40.3023 33.5523 40.75 33 40.75H5.5C4.94771 40.75 4.5 40.3023 4.5 39.75V20.25" stroke="#207336" stroke-width="2.6"/>
<path d="M14.794 23.254H16.796L19.148 26.782L21.5 23.254H23.502L20.128 28.084L23.726 33.25H21.724L19.148 29.386L16.572 33.25H14.57L18.14 28.084L14.794 23.254ZM24.2169 23.254H25.8409V31.85H31.2449V33.25H24.2169V23.254ZM35.47 23.058C36.646 23.058 37.57 23.296 38.228 23.786C38.928 24.304 39.334 25.116 39.432 26.208H37.808C37.668 25.592 37.402 25.144 37.038 24.878C36.674 24.598 36.114 24.472 35.386 24.472C34.756 24.472 34.28 24.556 33.944 24.738C33.524 24.948 33.328 25.298 33.328 25.774C33.328 26.194 33.552 26.544 34.028 26.796C34.238 26.908 34.812 27.118 35.736 27.412C37.094 27.832 37.962 28.168 38.354 28.392C39.222 28.91 39.656 29.624 39.656 30.548C39.656 31.444 39.306 32.158 38.606 32.676C37.906 33.18 36.912 33.446 35.638 33.446C34.406 33.446 33.44 33.208 32.754 32.732C31.914 32.144 31.452 31.22 31.382 29.946H33.006C33.118 30.702 33.384 31.248 33.818 31.57C34.21 31.85 34.812 32.004 35.638 32.004C36.366 32.004 36.954 31.878 37.374 31.64C37.794 31.388 38.018 31.066 38.018 30.646C38.018 30.114 37.696 29.694 37.08 29.386C36.884 29.288 36.24 29.064 35.134 28.728C33.902 28.336 33.132 28.056 32.838 27.888C32.068 27.426 31.69 26.754 31.69 25.872C31.69 24.99 32.054 24.29 32.81 23.786C33.51 23.296 34.392 23.058 35.47 23.058Z" fill="#207336"/>
<path d="M14.794 23.254V23.054H14.4121L14.6296 23.3679L14.794 23.254ZM16.796 23.254L16.9624 23.1431L16.903 23.054H16.796V23.254ZM19.148 26.782L18.9816 26.8929L19.148 27.1426L19.3144 26.8929L19.148 26.782ZM21.5 23.254V23.054H21.393L21.3336 23.1431L21.5 23.254ZM23.502 23.254L23.666 23.3685L23.8857 23.054H23.502V23.254ZM20.128 28.084L19.964 27.9695L19.8842 28.0838L19.9639 28.1983L20.128 28.084ZM23.726 33.25V33.45H24.109L23.8901 33.1357L23.726 33.25ZM21.724 33.25L21.5576 33.3609L21.617 33.45H21.724V33.25ZM19.148 29.386L19.3144 29.2751L19.148 29.0254L18.9816 29.2751L19.148 29.386ZM16.572 33.25V33.45H16.679L16.7384 33.3609L16.572 33.25ZM14.57 33.25L14.4055 33.1363L14.1887 33.45H14.57V33.25ZM18.14 28.084L18.3045 28.1977L18.3832 28.0839L18.3044 27.9701L18.14 28.084ZM14.794 23.454H16.796V23.054H14.794V23.454ZM16.6296 23.3649L18.9816 26.8929L19.3144 26.6711L16.9624 23.1431L16.6296 23.3649ZM19.3144 26.8929L21.6664 23.3649L21.3336 23.1431L18.9816 26.6711L19.3144 26.8929ZM21.5 23.454H23.502V23.054H21.5V23.454ZM23.338 23.1395L19.964 27.9695L20.292 28.1985L23.666 23.3685L23.338 23.1395ZM19.9639 28.1983L23.5619 33.3643L23.8901 33.1357L20.2921 27.9697L19.9639 28.1983ZM23.726 33.05H21.724V33.45H23.726V33.05ZM21.8904 33.1391L19.3144 29.2751L18.9816 29.4969L21.5576 33.3609L21.8904 33.1391ZM18.9816 29.2751L16.4056 33.1391L16.7384 33.3609L19.3144 29.4969L18.9816 29.2751ZM16.572 33.05H14.57V33.45H16.572V33.05ZM14.7345 33.3637L18.3045 28.1977L17.9755 27.9703L14.4055 33.1363L14.7345 33.3637ZM18.3044 27.9701L14.9584 23.1401L14.6296 23.3679L17.9756 28.1979L18.3044 27.9701ZM24.2169 23.254V23.054H24.0169V23.254H24.2169ZM25.8409 23.254H26.0409V23.054H25.8409V23.254ZM25.8409 31.85H25.6409V32.05H25.8409V31.85ZM31.2449 31.85H31.4449V31.65H31.2449V31.85ZM31.2449 33.25V33.45H31.4449V33.25H31.2449ZM24.2169 33.25H24.0169V33.45H24.2169V33.25ZM24.2169 23.454H25.8409V23.054H24.2169V23.454ZM25.6409 23.254V31.85H26.0409V23.254H25.6409ZM25.8409 32.05H31.2449V31.65H25.8409V32.05ZM31.0449 31.85V33.25H31.4449V31.85H31.0449ZM31.2449 33.05H24.2169V33.45H31.2449V33.05ZM24.4169 33.25V23.254H24.0169V33.25H24.4169ZM38.228 23.786L38.1086 23.9464L38.1091 23.9468L38.228 23.786ZM39.432 26.208V26.408H39.6508L39.6312 26.1901L39.432 26.208ZM37.808 26.208L37.613 26.2523L37.6484 26.408H37.808V26.208ZM37.038 24.878L36.9161 25.0366L36.92 25.0395L37.038 24.878ZM33.944 24.738L34.0335 24.917L34.0393 24.9139L33.944 24.738ZM34.028 26.796L34.1221 26.6195L34.1216 26.6192L34.028 26.796ZM35.736 27.412L35.6754 27.6026L35.6769 27.6031L35.736 27.412ZM38.354 28.392L38.4565 28.2202L38.4533 28.2184L38.354 28.392ZM38.606 32.676L38.7229 32.8383L38.725 32.8368L38.606 32.676ZM32.754 32.732L32.6393 32.8958L32.64 32.8963L32.754 32.732ZM31.382 29.946V29.746H31.1707L31.1823 29.957L31.382 29.946ZM33.006 29.946L33.2039 29.9167L33.1786 29.746H33.006V29.946ZM33.818 31.57L33.6988 31.7306L33.7018 31.7327L33.818 31.57ZM37.374 31.64L37.4727 31.8141L37.4769 31.8115L37.374 31.64ZM35.134 28.728L35.0734 28.9186L35.0759 28.9194L35.134 28.728ZM32.838 27.888L32.7351 28.0595L32.7388 28.0616L32.838 27.888ZM32.81 23.786L32.921 23.9525L32.9247 23.9498L32.81 23.786ZM35.47 23.258C36.6225 23.258 37.498 23.4917 38.1086 23.9464L38.3475 23.6256C37.642 23.1003 36.6695 22.858 35.47 22.858V23.258ZM38.1091 23.9468C38.7521 24.4226 39.1386 25.1755 39.2328 26.2259L39.6312 26.1901C39.5295 25.0565 39.104 24.1854 38.347 23.6252L38.1091 23.9468ZM39.432 26.008H37.808V26.408H39.432V26.008ZM38.0031 26.1637C37.856 25.5167 37.5705 25.0194 37.156 24.7165L36.92 25.0395C37.2335 25.2686 37.48 25.6673 37.613 26.2523L38.0031 26.1637ZM37.16 24.7195C36.7433 24.399 36.1288 24.272 35.386 24.272V24.672C36.0992 24.672 36.6048 24.797 36.9161 25.0365L37.16 24.7195ZM35.386 24.272C34.7439 24.272 34.2282 24.3566 33.8488 24.5621L34.0393 24.9139C34.3319 24.7554 34.7682 24.672 35.386 24.672V24.272ZM33.8546 24.5591C33.6148 24.679 33.4296 24.8441 33.306 25.0552C33.1829 25.2653 33.128 25.5084 33.128 25.774H33.528C33.528 25.5636 33.5712 25.3937 33.6511 25.2573C33.7304 25.1219 33.8533 25.007 34.0335 24.9169L33.8546 24.5591ZM33.128 25.774C33.128 26.2832 33.4075 26.6938 33.9345 26.9728L34.1216 26.6192C33.6965 26.3942 33.528 26.1048 33.528 25.774H33.128ZM33.9339 26.9725C34.1634 27.0948 34.7568 27.3103 35.6754 27.6026L35.7967 27.2214C34.8673 26.9257 34.3127 26.7212 34.1221 26.6195L33.9339 26.9725ZM35.6769 27.6031C37.0362 28.0234 37.8843 28.3539 38.2548 28.5656L38.4533 28.2184C38.0397 27.9821 37.1519 27.6406 35.7951 27.2209L35.6769 27.6031ZM38.2515 28.5637C39.0665 29.0501 39.456 29.7027 39.456 30.548H39.856C39.856 29.5453 39.3775 28.7699 38.4565 28.2203L38.2515 28.5637ZM39.456 30.548C39.456 31.3834 39.1339 32.0366 38.4871 32.5152L38.725 32.8368C39.4781 32.2794 39.856 31.5046 39.856 30.548H39.456ZM38.4892 32.5137C37.8349 32.9848 36.8872 33.246 35.638 33.246V33.646C36.9368 33.646 37.9772 33.3752 38.7229 32.8383L38.4892 32.5137ZM35.638 33.246C34.4281 33.246 33.508 33.0117 32.868 32.5677L32.64 32.8963C33.3721 33.4043 34.3839 33.646 35.638 33.646V33.246ZM32.8687 32.5682C32.0902 32.0232 31.6492 31.1628 31.5817 29.935L31.1823 29.957C31.2549 31.2772 31.7379 32.2648 32.6393 32.8958L32.8687 32.5682ZM31.382 30.146H33.006V29.746H31.382V30.146ZM32.8082 29.9753C32.9243 30.7592 33.2058 31.3648 33.6989 31.7306L33.9372 31.4094C33.5623 31.1312 33.3117 30.6448 33.2039 29.9167L32.8082 29.9753ZM33.7018 31.7327C34.1422 32.0474 34.7927 32.204 35.638 32.204V31.804C34.8313 31.804 34.2778 31.6526 33.9343 31.4073L33.7018 31.7327ZM35.638 32.204C36.3855 32.204 37.0117 32.0752 37.4726 31.814L37.2754 31.466C36.8963 31.6808 36.3466 31.804 35.638 31.804V32.204ZM37.4769 31.8115C37.9383 31.5347 38.218 31.1558 38.218 30.646H37.818C37.818 30.9762 37.6498 31.2413 37.2711 31.4685L37.4769 31.8115ZM38.218 30.646C38.218 30.0121 37.8262 29.5355 37.1695 29.2071L36.9906 29.5649C37.5658 29.8525 37.818 30.2159 37.818 30.646H38.218ZM37.1695 29.2071C36.9549 29.0998 36.2919 28.8707 35.1922 28.5366L35.0759 28.9194C36.1881 29.2573 36.8132 29.4762 36.9906 29.5649L37.1695 29.2071ZM35.1947 28.5374C34.5799 28.3418 34.0824 28.1748 33.7029 28.0361C33.3194 27.8961 33.0679 27.789 32.9373 27.7144L32.7388 28.0616C32.9021 28.155 33.1826 28.2719 33.5657 28.4119C33.9527 28.5532 34.4561 28.7222 35.0734 28.9186L35.1947 28.5374ZM32.9409 27.7165C32.2309 27.2905 31.89 26.6834 31.89 25.872H31.49C31.49 26.8246 31.9052 27.5615 32.7351 28.0595L32.9409 27.7165ZM31.89 25.872C31.89 25.0563 32.2211 24.419 32.921 23.9524L32.6991 23.6196C31.887 24.161 31.49 24.9237 31.49 25.872H31.89ZM32.9247 23.9498C33.5827 23.4893 34.4215 23.258 35.47 23.258V22.858C34.3626 22.858 33.4374 23.1027 32.6953 23.6222L32.9247 23.9498Z" fill="#207336"/>
</svg>
