<svg width="40" height="42" viewBox="0 0 40 42" fill="none" xmlns="http://www.w3.org/2000/svg">
<path d="M10 9.75V12.75C10 13.3023 9.55228 13.75 9 13.75H3C2.44772 13.75 2 13.3023 2 12.75V10.1832C2 9.90682 2.11441 9.64274 2.31606 9.45369L9.71151 2.52046C9.89685 2.3467 10.1414 2.25 10.3954 2.25H31.5C32.0523 2.25 32.5 2.69772 32.5 3.25V15.75V20.25" stroke="#FFAC30" stroke-width="2.6"/>
<path d="M32.5 36.25V38.75C32.5 39.3023 32.0523 39.75 31.5 39.75H4C3.44771 39.75 3 39.3023 3 38.75V19.25" stroke="#FFAC30" stroke-width="2.6"/>
<path d="M17.914 22.254H19.552V29.016C19.552 30.164 19.314 31.004 18.838 31.564C18.306 32.152 17.466 32.446 16.304 32.446C15.296 32.446 14.526 32.166 14.008 31.606C13.476 31.046 13.21 30.276 13.21 29.296V28.974H14.848V29.282C14.848 30.43 15.338 31.004 16.332 31.004C16.878 31.004 17.284 30.836 17.536 30.514C17.788 30.192 17.914 29.674 17.914 28.96V22.254ZM20.9532 22.254H25.0972C27.5052 22.254 28.7232 23.276 28.7232 25.32C28.7232 27.378 27.5052 28.414 25.0692 28.414H22.5912V32.25H20.9532V22.254ZM22.5912 23.654V27.014H24.9712C25.6992 27.014 26.2312 26.874 26.5672 26.622C26.9032 26.356 27.0712 25.922 27.0712 25.32C27.0712 24.718 26.8892 24.298 26.5532 24.046C26.2172 23.78 25.6852 23.654 24.9712 23.654H22.5912ZM33.907 22.058C35.195 22.058 36.203 22.338 36.945 22.912C37.659 23.472 38.107 24.298 38.289 25.418H36.637C36.497 24.774 36.189 24.298 35.741 23.976C35.279 23.654 34.663 23.5 33.907 23.5C32.969 23.5 32.227 23.808 31.681 24.452C31.079 25.124 30.785 26.062 30.785 27.294C30.785 28.47 31.051 29.38 31.583 30.01C32.157 30.682 33.053 31.018 34.271 31.018C34.747 31.018 35.195 30.962 35.615 30.85C36.007 30.738 36.357 30.584 36.693 30.388V28.33H34.047V26.93H38.331V31.158C37.799 31.578 37.197 31.886 36.511 32.11C35.783 32.334 34.985 32.446 34.089 32.446C32.493 32.446 31.261 31.942 30.379 30.934C29.553 29.996 29.147 28.778 29.147 27.294C29.147 25.796 29.553 24.564 30.379 23.598C31.247 22.562 32.423 22.058 33.907 22.058Z" fill="#FFAC30"/>
<path d="M17.914 22.254V22.054H17.714V22.254H17.914ZM19.552 22.254H19.752V22.054H19.552V22.254ZM18.838 31.564L18.9864 31.6982L18.9904 31.6935L18.838 31.564ZM14.008 31.606L14.1548 31.4702L14.153 31.4683L14.008 31.606ZM13.21 28.974V28.774H13.01V28.974H13.21ZM14.848 28.974H15.048V28.774H14.848V28.974ZM17.536 30.514L17.3785 30.3907L17.3785 30.3907L17.536 30.514ZM17.914 22.454H19.552V22.054H17.914V22.454ZM19.352 22.254V29.016H19.752V22.254H19.352ZM19.352 29.016C19.352 30.1411 19.118 30.9258 18.6856 31.4345L18.9904 31.6935C19.51 31.0822 19.752 30.1869 19.752 29.016H19.352ZM18.6897 31.4298C18.2102 31.9598 17.4357 32.246 16.304 32.246V32.646C17.4963 32.646 18.4018 32.3442 18.9863 31.6982L18.6897 31.4298ZM16.304 32.246C15.3325 32.246 14.6236 31.977 14.1548 31.4702L13.8612 31.7418C14.4284 32.355 15.2595 32.646 16.304 32.646V32.246ZM14.153 31.4683C13.6651 30.9547 13.41 30.2391 13.41 29.296H13.01C13.01 30.3129 13.2869 31.1373 13.863 31.7437L14.153 31.4683ZM13.41 29.296V28.974H13.01V29.296H13.41ZM13.21 29.174H14.848V28.774H13.21V29.174ZM14.648 28.974V29.282H15.048V28.974H14.648ZM14.648 29.282C14.648 29.8797 14.7749 30.3658 15.0656 30.7039C15.3613 31.0479 15.796 31.204 16.332 31.204V30.804C15.874 30.804 15.5667 30.6731 15.3689 30.4431C15.1661 30.2072 15.048 29.8323 15.048 29.282H14.648ZM16.332 31.204C16.9188 31.204 17.3924 31.0219 17.6935 30.6373L17.3785 30.3907C17.1756 30.6501 16.8372 30.804 16.332 30.804V31.204ZM17.6935 30.6373C17.9871 30.2622 18.114 29.6888 18.114 28.96H17.714C17.714 29.6592 17.5889 30.1218 17.3785 30.3907L17.6935 30.6373ZM18.114 28.96V22.254H17.714V28.96H18.114ZM20.9532 22.254V22.054H20.7532V22.254H20.9532ZM22.5912 28.414V28.214H22.3912V28.414H22.5912ZM22.5912 32.25V32.45H22.7912V32.25H22.5912ZM20.9532 32.25H20.7532V32.45H20.9532V32.25ZM22.5912 23.654V23.454H22.3912V23.654H22.5912ZM22.5912 27.014H22.3912V27.214H22.5912V27.014ZM26.5672 26.622L26.6872 26.7821L26.6913 26.7788L26.5672 26.622ZM26.5532 24.046L26.429 24.2029L26.4332 24.206L26.5532 24.046ZM20.9532 22.454H25.0972V22.054H20.9532V22.454ZM25.0972 22.454C26.2776 22.454 27.1295 22.7052 27.6842 23.1733C28.2325 23.6361 28.5232 24.3389 28.5232 25.32H28.9232C28.9232 24.2571 28.6049 23.4269 27.9422 22.8677C27.2859 22.3138 26.3248 22.054 25.0972 22.054V22.454ZM28.5232 25.32C28.5232 26.3085 28.2323 27.0184 27.6804 27.4862C27.1222 27.9593 26.2636 28.214 25.0692 28.214V28.614C26.3109 28.614 27.2792 28.3507 27.939 27.7913C28.6052 27.2266 28.9232 26.3895 28.9232 25.32H28.5232ZM25.0692 28.214H22.5912V28.614H25.0692V28.214ZM22.3912 28.414V32.25H22.7912V28.414H22.3912ZM22.5912 32.05H20.9532V32.45H22.5912V32.05ZM21.1532 32.25V22.254H20.7532V32.25H21.1532ZM22.3912 23.654V27.014H22.7912V23.654H22.3912ZM22.5912 27.214H24.9712V26.814H22.5912V27.214ZM24.9712 27.214C25.7184 27.214 26.3013 27.0714 26.6872 26.782L26.4472 26.462C26.1611 26.6766 25.68 26.814 24.9712 26.814V27.214ZM26.6913 26.7788C27.0925 26.4612 27.2712 25.9571 27.2712 25.32H26.8712C26.8712 25.8869 26.7139 26.2508 26.4431 26.4652L26.6913 26.7788ZM27.2712 25.32C27.2712 24.678 27.0754 24.1877 26.6732 23.886L26.4332 24.206C26.703 24.4083 26.8712 24.758 26.8712 25.32H27.2712ZM26.6773 23.8892C26.288 23.5809 25.7 23.454 24.9712 23.454V23.854C25.6704 23.854 26.1464 23.9791 26.4291 24.2028L26.6773 23.8892ZM24.9712 23.454H22.5912V23.854H24.9712V23.454ZM36.945 22.912L37.0685 22.7546L37.0674 22.7538L36.945 22.912ZM38.289 25.418V25.618H38.5242L38.4864 25.3859L38.289 25.418ZM36.637 25.418L36.4416 25.4605L36.4758 25.618H36.637V25.418ZM35.741 23.976L35.8578 23.8136L35.8554 23.8119L35.741 23.976ZM31.681 24.452L31.8301 24.5855L31.8336 24.5813L31.681 24.452ZM31.583 30.01L31.4302 30.139L31.431 30.1399L31.583 30.01ZM35.615 30.85L35.6666 31.0433L35.67 31.0423L35.615 30.85ZM36.693 30.388L36.7938 30.5608L36.893 30.5029V30.388H36.693ZM36.693 28.33H36.893V28.13H36.693V28.33ZM34.047 28.33H33.847V28.53H34.047V28.33ZM34.047 26.93V26.73H33.847V26.93H34.047ZM38.331 26.93H38.531V26.73H38.331V26.93ZM38.331 31.158L38.455 31.315L38.531 31.2549V31.158H38.331ZM36.511 32.11L36.5699 32.3012L36.5731 32.3001L36.511 32.11ZM30.379 30.934L30.5295 30.8023L30.5291 30.8018L30.379 30.934ZM30.379 23.598L30.531 23.728L30.5323 23.7264L30.379 23.598ZM33.907 22.258C35.1678 22.258 36.1271 22.5321 36.8227 23.0702L37.0674 22.7538C36.2789 22.1439 35.2223 21.858 33.907 21.858V22.258ZM36.8216 23.0694C37.4875 23.5917 37.9157 24.3678 38.0916 25.4501L38.4864 25.3859C38.2983 24.2282 37.8305 23.3523 37.0685 22.7546L36.8216 23.0694ZM38.289 25.218H36.637V25.618H38.289V25.218ZM36.8325 25.3755C36.6832 24.689 36.3505 24.1678 35.8578 23.8136L35.6243 24.1384C36.0276 24.4282 36.3108 24.859 36.4416 25.4605L36.8325 25.3755ZM35.8554 23.8119C35.3488 23.4588 34.688 23.3 33.907 23.3V23.7C34.6381 23.7 35.2093 23.8492 35.6267 24.1401L35.8554 23.8119ZM33.907 23.3C32.9201 23.3 32.1184 23.6269 31.5285 24.3227L31.8336 24.5813C32.3357 23.9891 33.018 23.7 33.907 23.7V23.3ZM31.5321 24.3185C30.8866 25.039 30.585 26.0313 30.585 27.294H30.985C30.985 26.0927 31.2714 25.209 31.83 24.5854L31.5321 24.3185ZM30.585 27.294C30.585 28.4971 30.8569 29.4601 31.4302 30.139L31.7358 29.881C31.2452 29.2999 30.985 28.4429 30.985 27.294H30.585ZM31.431 30.1399C32.0558 30.8714 33.0177 31.218 34.271 31.218V30.818C33.0884 30.818 32.2583 30.4926 31.7351 29.8801L31.431 30.1399ZM34.271 31.218C34.7628 31.218 35.2282 31.1601 35.6666 31.0432L35.5635 30.6568C35.1618 30.7639 34.7313 30.818 34.271 30.818V31.218ZM35.67 31.0423C36.079 30.9254 36.4444 30.7646 36.7938 30.5608L36.5923 30.2152C36.2697 30.4034 35.935 30.5506 35.5601 30.6577L35.67 31.0423ZM36.893 30.388V28.33H36.493V30.388H36.893ZM36.693 28.13H34.047V28.53H36.693V28.13ZM34.247 28.33V26.93H33.847V28.33H34.247ZM34.047 27.13H38.331V26.73H34.047V27.13ZM38.131 26.93V31.158H38.531V26.93H38.131ZM38.2071 31.001C37.6961 31.4044 37.1158 31.7021 36.449 31.9199L36.5731 32.3001C37.2783 32.0699 37.9019 31.7516 38.455 31.315L38.2071 31.001ZM36.4522 31.9188C35.746 32.1361 34.9682 32.246 34.089 32.246V32.646C35.0019 32.646 35.8201 32.5319 36.5698 32.3012L36.4522 31.9188ZM34.089 32.246C32.5389 32.246 31.3664 31.7587 30.5295 30.8023L30.2285 31.0657C31.1556 32.1253 32.4472 32.646 34.089 32.646V32.246ZM30.5291 30.8018C29.7417 29.9076 29.347 28.74 29.347 27.294H28.947C28.947 28.816 29.3644 30.0844 30.2289 31.0662L30.5291 30.8018ZM29.347 27.294C29.347 25.8339 29.7418 24.651 30.531 23.728L30.227 23.468C29.3643 24.477 28.947 25.7581 28.947 27.294H29.347ZM30.5323 23.7264C31.3574 22.7417 32.4741 22.258 33.907 22.258V21.858C32.372 21.858 31.1366 22.3823 30.2257 23.4696L30.5323 23.7264Z" fill="#FFAC30"/>
</svg>
