<svg width="44" height="44" viewBox="0 0 44 44" fill="none" xmlns="http://www.w3.org/2000/svg">
<path d="M12 10.75V13.75C12 14.3023 11.5523 14.75 11 14.75H5C4.44772 14.75 4 14.3023 4 13.75V11.1832C4 10.9068 4.11441 10.6427 4.31606 10.4537L11.7115 3.52046C11.8969 3.3467 12.1414 3.25 12.3954 3.25H33.5C34.0523 3.25 34.5 3.69772 34.5 4.25V16.75V21.25" stroke="#6873DE" stroke-width="2.6"/>
<path d="M34.5 37.25V39.75C34.5 40.3023 34.0523 40.75 33.5 40.75H6C5.44771 40.75 5 40.3023 5 39.75V20.25" stroke="#6873DE" stroke-width="2.6"/>
<path d="M16.418 23.058C17.944 23.058 19.148 23.548 20.03 24.542C20.87 25.48 21.29 26.726 21.29 28.266C21.29 29.806 20.87 31.038 20.03 31.976C19.148 32.956 17.944 33.446 16.418 33.446C14.878 33.446 13.674 32.942 12.806 31.962C11.966 31.01 11.56 29.778 11.56 28.266C11.56 26.74 11.966 25.508 12.806 24.556C13.674 23.548 14.878 23.058 16.418 23.058ZM16.418 24.5C15.382 24.5 14.584 24.85 14.01 25.55C13.464 26.222 13.198 27.118 13.198 28.266C13.198 29.4 13.464 30.296 14.01 30.968C14.57 31.654 15.382 32.004 16.418 32.004C17.454 32.004 18.252 31.668 18.812 31.01C19.358 30.352 19.638 29.442 19.638 28.266C19.638 27.09 19.358 26.166 18.812 25.494C18.252 24.822 17.454 24.5 16.418 24.5ZM21.5055 23.254H29.6955V24.654H26.4195V33.25H24.7815V24.654H21.5055V23.254ZM30.3287 23.254H31.9667V27.426H37.0347V23.254H38.6727V33.25H37.0347V28.826H31.9667V33.25H30.3287V23.254Z" fill="#6873DE"/>
<path d="M20.03 24.542L19.8804 24.6747L19.881 24.6754L20.03 24.542ZM20.03 31.976L20.1787 32.1098L20.179 32.1094L20.03 31.976ZM12.806 31.962L12.656 32.0943L12.6563 32.0946L12.806 31.962ZM12.806 24.556L12.956 24.6883L12.9576 24.6865L12.806 24.556ZM14.01 25.55L13.8553 25.4232L13.8548 25.4239L14.01 25.55ZM14.01 30.968L13.8548 31.0941L13.8551 31.0945L14.01 30.968ZM18.812 31.01L18.9643 31.1396L18.9659 31.1377L18.812 31.01ZM18.812 25.494L18.9672 25.3679L18.9656 25.366L18.812 25.494ZM16.418 23.258C17.897 23.258 19.0426 23.7306 19.8804 24.6747L20.1796 24.4093C19.2534 23.3654 17.991 22.858 16.418 22.858V23.258ZM19.881 24.6754C20.6811 25.5688 21.09 26.7635 21.09 28.266H21.49C21.49 26.6885 21.0589 25.3912 20.179 24.4086L19.881 24.6754ZM21.09 28.266C21.09 29.768 20.6814 30.9488 19.881 31.8426L20.179 32.1094C21.0586 31.1272 21.49 29.844 21.49 28.266H21.09ZM19.8813 31.8422C19.0434 32.7733 17.8971 33.246 16.418 33.246V33.646C17.9909 33.646 19.2526 33.1387 20.1787 32.1098L19.8813 31.8422ZM16.418 33.246C14.9257 33.246 13.7799 32.7599 12.9557 31.8294L12.6563 32.0946C13.5681 33.1241 14.8303 33.646 16.418 33.646V33.246ZM12.956 31.8297C12.155 30.9219 11.76 29.7407 11.76 28.266H11.36C11.36 29.8153 11.777 31.0981 12.656 32.0943L12.956 31.8297ZM11.76 28.266C11.76 26.7771 12.1552 25.5959 12.956 24.6883L12.656 24.4237C11.7768 25.4201 11.36 26.7029 11.36 28.266H11.76ZM12.9576 24.6865C13.7805 23.7308 14.9245 23.258 16.418 23.258V22.858C14.8315 22.858 13.5675 23.3652 12.6544 24.4255L12.9576 24.6865ZM16.418 24.3C15.3313 24.3 14.4728 24.6702 13.8553 25.4232L14.1647 25.6768C14.6952 25.0298 15.4327 24.7 16.418 24.7V24.3ZM13.8548 25.4239C13.2713 26.1419 12.998 27.0876 12.998 28.266H13.398C13.398 27.1484 13.6567 26.3021 14.1652 25.6761L13.8548 25.4239ZM12.998 28.266C12.998 29.4308 13.2715 30.3763 13.8548 31.0941L14.1652 30.8419C13.6565 30.2157 13.398 29.3692 13.398 28.266H12.998ZM13.8551 31.0945C14.4596 31.8351 15.3332 32.204 16.418 32.204V31.804C15.4308 31.804 14.6804 31.4729 14.1649 30.8415L13.8551 31.0945ZM16.418 32.204C17.501 32.204 18.3594 31.8504 18.9643 31.1396L18.6597 30.8804C18.1446 31.4856 17.407 31.804 16.418 31.804V32.204ZM18.9659 31.1377C19.5505 30.4332 19.838 29.4727 19.838 28.266H19.438C19.438 29.4113 19.1655 30.2708 18.6581 30.8823L18.9659 31.1377ZM19.838 28.266C19.838 27.0593 19.5505 26.0858 18.9672 25.3679L18.6568 25.6201C19.1655 26.2462 19.438 27.1207 19.438 28.266H19.838ZM18.9656 25.366C18.3592 24.6383 17.4988 24.3 16.418 24.3V24.7C17.4092 24.7 18.1448 25.0057 18.6584 25.622L18.9656 25.366ZM21.5055 23.254V23.054H21.3055V23.254H21.5055ZM29.6955 23.254H29.8955V23.054H29.6955V23.254ZM29.6955 24.654V24.854H29.8955V24.654H29.6955ZM26.4195 24.654V24.454H26.2195V24.654H26.4195ZM26.4195 33.25V33.45H26.6195V33.25H26.4195ZM24.7815 33.25H24.5815V33.45H24.7815V33.25ZM24.7815 24.654H24.9815V24.454H24.7815V24.654ZM21.5055 24.654H21.3055V24.854H21.5055V24.654ZM21.5055 23.454H29.6955V23.054H21.5055V23.454ZM29.4955 23.254V24.654H29.8955V23.254H29.4955ZM29.6955 24.454H26.4195V24.854H29.6955V24.454ZM26.2195 24.654V33.25H26.6195V24.654H26.2195ZM26.4195 33.05H24.7815V33.45H26.4195V33.05ZM24.9815 33.25V24.654H24.5815V33.25H24.9815ZM24.7815 24.454H21.5055V24.854H24.7815V24.454ZM21.7055 24.654V23.254H21.3055V24.654H21.7055ZM30.3287 23.254V23.054H30.1287V23.254H30.3287ZM31.9667 23.254H32.1667V23.054H31.9667V23.254ZM31.9667 27.426H31.7667V27.626H31.9667V27.426ZM37.0347 27.426V27.626H37.2347V27.426H37.0347ZM37.0347 23.254V23.054H36.8347V23.254H37.0347ZM38.6727 23.254H38.8727V23.054H38.6727V23.254ZM38.6727 33.25V33.45H38.8727V33.25H38.6727ZM37.0347 33.25H36.8347V33.45H37.0347V33.25ZM37.0347 28.826H37.2347V28.626H37.0347V28.826ZM31.9667 28.826V28.626H31.7667V28.826H31.9667ZM31.9667 33.25V33.45H32.1667V33.25H31.9667ZM30.3287 33.25H30.1287V33.45H30.3287V33.25ZM30.3287 23.454H31.9667V23.054H30.3287V23.454ZM31.7667 23.254V27.426H32.1667V23.254H31.7667ZM31.9667 27.626H37.0347V27.226H31.9667V27.626ZM37.2347 27.426V23.254H36.8347V27.426H37.2347ZM37.0347 23.454H38.6727V23.054H37.0347V23.454ZM38.4727 23.254V33.25H38.8727V23.254H38.4727ZM38.6727 33.05H37.0347V33.45H38.6727V33.05ZM37.2347 33.25V28.826H36.8347V33.25H37.2347ZM37.0347 28.626H31.9667V29.026H37.0347V28.626ZM31.7667 28.826V33.25H32.1667V28.826H31.7667ZM31.9667 33.05H30.3287V33.45H31.9667V33.05ZM30.5287 33.25V23.254H30.1287V33.25H30.5287Z" fill="#6873DE"/>
</svg>
