<svg width="44" height="44" viewBox="0 0 44 44" fill="none" xmlns="http://www.w3.org/2000/svg">
<path d="M11 10.75V13.75C11 14.3023 10.5523 14.75 10 14.75H4C3.44772 14.75 3 14.3023 3 13.75V11.1832C3 10.9068 3.11441 10.6427 3.31606 10.4537L10.7115 3.52046C10.8969 3.3467 11.1414 3.25 11.3954 3.25H32.5C33.0523 3.25 33.5 3.69772 33.5 4.25V16.75V21.25" stroke="#CB201F" stroke-width="2.6"/>
<path d="M33.5 37.25V39.75C33.5 40.3023 33.0523 40.75 32.5 40.75H5C4.44771 40.75 4 40.3023 4 39.75V20.25" stroke="#CB201F" stroke-width="2.6"/>
<path d="M14.98 23.254H19.124C21.532 23.254 22.75 24.276 22.75 26.32C22.75 28.378 21.532 29.414 19.096 29.414H16.618V33.25H14.98V23.254ZM16.618 24.654V28.014H18.998C19.726 28.014 20.258 27.874 20.594 27.622C20.93 27.356 21.098 26.922 21.098 26.32C21.098 25.718 20.916 25.298 20.58 25.046C20.244 24.78 19.712 24.654 18.998 24.654H16.618ZM23.5938 23.254H27.2478C28.8718 23.254 30.0898 23.702 30.9298 24.598C31.7278 25.438 32.1338 26.656 32.1338 28.252C32.1338 29.834 31.7278 31.052 30.9298 31.906C30.0898 32.802 28.8718 33.25 27.2478 33.25H23.5938V23.254ZM25.2318 24.654V31.85H26.9398C28.1858 31.85 29.0958 31.556 29.6698 30.982C30.2298 30.394 30.5098 29.484 30.5098 28.252C30.5098 26.992 30.2298 26.068 29.6698 25.508C29.0958 24.934 28.1858 24.654 26.9398 24.654H25.2318ZM33.11 23.254H39.928V24.654H34.748V27.426H39.634V28.826H34.748V33.25H33.11V23.254Z" fill="#CB201F"/>
<path d="M14.98 23.254V23.054H14.78V23.254H14.98ZM16.618 29.414V29.214H16.418V29.414H16.618ZM16.618 33.25V33.45H16.818V33.25H16.618ZM14.98 33.25H14.78V33.45H14.98V33.25ZM16.618 24.654V24.454H16.418V24.654H16.618ZM16.618 28.014H16.418V28.214H16.618V28.014ZM20.594 27.622L20.714 27.7821L20.7181 27.7788L20.594 27.622ZM20.58 25.046L20.4558 25.2029L20.46 25.206L20.58 25.046ZM14.98 23.454H19.124V23.054H14.98V23.454ZM19.124 23.454C20.3044 23.454 21.1563 23.7052 21.711 24.1733C22.2593 24.6361 22.55 25.3389 22.55 26.32H22.95C22.95 25.2571 22.6317 24.4269 21.969 23.8677C21.3127 23.3138 20.3516 23.054 19.124 23.054V23.454ZM22.55 26.32C22.55 27.3085 22.259 28.0184 21.7072 28.4862C21.149 28.9593 20.2903 29.214 19.096 29.214V29.614C20.3377 29.614 21.306 29.3507 21.9658 28.7913C22.632 28.2266 22.95 27.3895 22.95 26.32H22.55ZM19.096 29.214H16.618V29.614H19.096V29.214ZM16.418 29.414V33.25H16.818V29.414H16.418ZM16.618 33.05H14.98V33.45H16.618V33.05ZM15.18 33.25V23.254H14.78V33.25H15.18ZM16.418 24.654V28.014H16.818V24.654H16.418ZM16.618 28.214H18.998V27.814H16.618V28.214ZM18.998 28.214C19.7452 28.214 20.3281 28.0714 20.714 27.782L20.474 27.462C20.1879 27.6766 19.7068 27.814 18.998 27.814V28.214ZM20.7181 27.7788C21.1193 27.4612 21.298 26.9571 21.298 26.32H20.898C20.898 26.8869 20.7407 27.2508 20.4699 27.4652L20.7181 27.7788ZM21.298 26.32C21.298 25.678 21.1022 25.1877 20.7 24.886L20.46 25.206C20.7298 25.4083 20.898 25.758 20.898 26.32H21.298ZM20.7041 24.8892C20.3148 24.5809 19.7268 24.454 18.998 24.454V24.854C19.6972 24.854 20.1732 24.9791 20.4559 25.2028L20.7041 24.8892ZM18.998 24.454H16.618V24.854H18.998V24.454ZM23.5938 23.254V23.054H23.3938V23.254H23.5938ZM30.9298 24.598L30.7839 24.7348L30.7848 24.7357L30.9298 24.598ZM30.9298 31.906L31.0757 32.0428L31.076 32.0425L30.9298 31.906ZM23.5938 33.25H23.3938V33.45H23.5938V33.25ZM25.2318 24.654V24.454H25.0318V24.654H25.2318ZM25.2318 31.85H25.0318V32.05H25.2318V31.85ZM29.6698 30.982L29.8113 31.1235L29.8147 31.1199L29.6698 30.982ZM29.6698 25.508L29.5284 25.6494L29.5284 25.6494L29.6698 25.508ZM23.5938 23.454H27.2478V23.054H23.5938V23.454ZM27.2478 23.454C28.8346 23.454 29.9925 23.8906 30.7839 24.7348L31.0757 24.4612C30.1871 23.5134 28.9091 23.054 27.2478 23.054V23.454ZM30.7848 24.7357C31.5364 25.5269 31.9338 26.6885 31.9338 28.252H32.3338C32.3338 26.6235 31.9192 25.3491 31.0748 24.4602L30.7848 24.7357ZM31.9338 28.252C31.9338 29.8007 31.5368 30.9635 30.7837 31.7695L31.076 32.0425C31.9189 31.1405 32.3338 29.8673 32.3338 28.252H31.9338ZM30.7839 31.7692C29.9925 32.6134 28.8346 33.05 27.2478 33.05V33.45C28.9091 33.45 30.1871 32.9906 31.0757 32.0428L30.7839 31.7692ZM27.2478 33.05H23.5938V33.45H27.2478V33.05ZM23.7938 33.25V23.254H23.3938V33.25H23.7938ZM25.0318 24.654V31.85H25.4318V24.654H25.0318ZM25.2318 32.05H26.9398V31.65H25.2318V32.05ZM26.9398 32.05C28.2123 32.05 29.1844 31.7503 29.8112 31.1234L29.5284 30.8406C29.0073 31.3617 28.1594 31.65 26.9398 31.65V32.05ZM29.8147 31.1199C30.4246 30.4795 30.7098 29.5094 30.7098 28.252H30.3098C30.3098 29.4586 30.035 30.3085 29.525 30.8441L29.8147 31.1199ZM30.7098 28.252C30.7098 26.97 30.4261 25.9814 29.8112 25.3666L29.5284 25.6494C30.0336 26.1546 30.3098 27.014 30.3098 28.252H30.7098ZM29.8112 25.3666C29.1833 24.7386 28.2099 24.454 26.9398 24.454V24.854C28.1618 24.854 29.0084 25.1294 29.5284 25.6494L29.8112 25.3666ZM26.9398 24.454H25.2318V24.854H26.9398V24.454ZM33.11 23.254V23.054H32.91V23.254H33.11ZM39.928 23.254H40.128V23.054H39.928V23.254ZM39.928 24.654V24.854H40.128V24.654H39.928ZM34.748 24.654V24.454H34.548V24.654H34.748ZM34.748 27.426H34.548V27.626H34.748V27.426ZM39.634 27.426H39.834V27.226H39.634V27.426ZM39.634 28.826V29.026H39.834V28.826H39.634ZM34.748 28.826V28.626H34.548V28.826H34.748ZM34.748 33.25V33.45H34.948V33.25H34.748ZM33.11 33.25H32.91V33.45H33.11V33.25ZM33.11 23.454H39.928V23.054H33.11V23.454ZM39.728 23.254V24.654H40.128V23.254H39.728ZM39.928 24.454H34.748V24.854H39.928V24.454ZM34.548 24.654V27.426H34.948V24.654H34.548ZM34.748 27.626H39.634V27.226H34.748V27.626ZM39.434 27.426V28.826H39.834V27.426H39.434ZM39.634 28.626H34.748V29.026H39.634V28.626ZM34.548 28.826V33.25H34.948V28.826H34.548ZM34.748 33.05H33.11V33.45H34.748V33.05ZM33.31 33.25V23.254H32.91V33.25H33.31Z" fill="#CB201F"/>
</svg>
