<?xml version="1.0" standalone="no"?><!DOCTYPE svg PUBLIC "-//W3C//DTD SVG 1.1//EN" "http://www.w3.org/Graphics/SVG/1.1/DTD/svg11.dtd"><svg class="icon" width="200px" height="200.00px" viewBox="0 0 1024 1024" version="1.1" xmlns="http://www.w3.org/2000/svg"><path fill="#ffffff" d="M963.764706 825.223529h-120.470588c-18.070588-60.235294-66.258824-102.4-132.517647-102.4-60.235294 0-114.447059 42.164706-132.517647 102.4H234.917647c-78.305882 0-138.541176-54.211765-138.541176-138.541176 0-78.305882 60.235294-138.541176 138.541176-138.541177H783.058824c120.470588 0 210.823529-90.352941 210.823529-210.823529S903.529412 126.494118 783.058824 126.494118H445.741176C427.670588 66.258824 379.482353 24.094118 313.223529 24.094118S192.752941 66.258824 180.705882 120.470588H60.235294c-18.070588 0-36.141176 18.070588-36.141176 42.164706 0 18.070588 18.070588 36.141176 36.141176 36.141177h120.470588C192.752941 259.011765 246.964706 301.176471 313.223529 301.176471c60.235294 0 114.447059-42.164706 132.517647-102.4h343.341177c78.305882 0 138.541176 54.211765 138.541176 138.541176 0 78.305882-60.235294 138.541176-138.541176 138.541177H234.917647c-120.470588 0-210.823529 90.352941-210.823529 210.823529s90.352941 210.823529 210.823529 210.823529h343.341177c18.070588 60.235294 66.258824 102.4 132.517647 102.4 60.235294 0 114.447059-42.164706 132.517647-102.4h120.470588c18.070588 0 36.141176-18.070588 36.141176-36.141176s-18.070588-36.141176-36.141176-36.141177zM313.223529 222.870588c-36.141176 0-60.235294-30.117647-60.235294-60.235294 0-36.141176 30.117647-60.235294 60.235294-60.235294 36.141176 0 60.235294 30.117647 60.235295 60.235294s-30.117647 60.235294-60.235295 60.235294z m397.552942 704.752941c-36.141176 0-60.235294-30.117647-60.235295-60.235294s30.117647-60.235294 60.235295-60.235294c36.141176 0 60.235294 30.117647 60.235294 60.235294s-24.094118 60.235294-60.235294 60.235294z" /></svg>