<svg width="44" height="44" viewBox="0 0 44 44" fill="none" xmlns="http://www.w3.org/2000/svg">
<path d="M11.5 10.75V13.75C11.5 14.3023 11.0523 14.75 10.5 14.75H4.5C3.94772 14.75 3.5 14.3023 3.5 13.75V11.1832C3.5 10.9068 3.61441 10.6427 3.81606 10.4537L11.2115 3.52046C11.3969 3.3467 11.6414 3.25 11.8954 3.25H33C33.5523 3.25 34 3.69772 34 4.25V16.75V21.25" stroke="#FFAC30" stroke-width="2.6"/>
<path d="M34 37.25V39.75C34 40.3023 33.5523 40.75 33 40.75H5.5C4.94771 40.75 4.5 40.3023 4.5 39.75V20.25" stroke="#FFAC30" stroke-width="2.6"/>
<path d="M12.48 23.254H16.624C19.032 23.254 20.25 24.276 20.25 26.32C20.25 28.378 19.032 29.414 16.596 29.414H14.118V33.25H12.48V23.254ZM14.118 24.654V28.014H16.498C17.226 28.014 17.758 27.874 18.094 27.622C18.43 27.356 18.598 26.922 18.598 26.32C18.598 25.718 18.416 25.298 18.08 25.046C17.744 24.78 17.212 24.654 16.498 24.654H14.118ZM21.0938 23.254H22.7318L27.6738 30.464H27.7298V23.254H29.3818V33.25H27.7858L22.7878 25.942H22.7318V33.25H21.0938V23.254ZM35.1277 23.058C36.4157 23.058 37.4237 23.338 38.1657 23.912C38.8797 24.472 39.3277 25.298 39.5097 26.418H37.8577C37.7177 25.774 37.4097 25.298 36.9617 24.976C36.4997 24.654 35.8837 24.5 35.1277 24.5C34.1897 24.5 33.4477 24.808 32.9017 25.452C32.2997 26.124 32.0057 27.062 32.0057 28.294C32.0057 29.47 32.2717 30.38 32.8037 31.01C33.3777 31.682 34.2737 32.018 35.4917 32.018C35.9677 32.018 36.4157 31.962 36.8357 31.85C37.2277 31.738 37.5777 31.584 37.9137 31.388V29.33H35.2677V27.93H39.5517V32.158C39.0197 32.578 38.4177 32.886 37.7317 33.11C37.0037 33.334 36.2057 33.446 35.3097 33.446C33.7137 33.446 32.4817 32.942 31.5997 31.934C30.7737 30.996 30.3677 29.778 30.3677 28.294C30.3677 26.796 30.7737 25.564 31.5997 24.598C32.4677 23.562 33.6437 23.058 35.1277 23.058Z" fill="#FFAC30"/>
<path d="M12.48 23.254V23.054H12.28V23.254H12.48ZM14.118 29.414V29.214H13.918V29.414H14.118ZM14.118 33.25V33.45H14.318V33.25H14.118ZM12.48 33.25H12.28V33.45H12.48V33.25ZM14.118 24.654V24.454H13.918V24.654H14.118ZM14.118 28.014H13.918V28.214H14.118V28.014ZM18.094 27.622L18.214 27.7821L18.2181 27.7788L18.094 27.622ZM18.08 25.046L17.9558 25.2029L17.96 25.206L18.08 25.046ZM12.48 23.454H16.624V23.054H12.48V23.454ZM16.624 23.454C17.8044 23.454 18.6563 23.7052 19.211 24.1733C19.7593 24.6361 20.05 25.3389 20.05 26.32H20.45C20.45 25.2571 20.1317 24.4269 19.469 23.8677C18.8127 23.3138 17.8516 23.054 16.624 23.054V23.454ZM20.05 26.32C20.05 27.3085 19.759 28.0184 19.2072 28.4862C18.649 28.9593 17.7903 29.214 16.596 29.214V29.614C17.8377 29.614 18.806 29.3507 19.4658 28.7913C20.132 28.2266 20.45 27.3895 20.45 26.32H20.05ZM16.596 29.214H14.118V29.614H16.596V29.214ZM13.918 29.414V33.25H14.318V29.414H13.918ZM14.118 33.05H12.48V33.45H14.118V33.05ZM12.68 33.25V23.254H12.28V33.25H12.68ZM13.918 24.654V28.014H14.318V24.654H13.918ZM14.118 28.214H16.498V27.814H14.118V28.214ZM16.498 28.214C17.2452 28.214 17.8281 28.0714 18.214 27.782L17.974 27.462C17.6879 27.6766 17.2068 27.814 16.498 27.814V28.214ZM18.2181 27.7788C18.6193 27.4612 18.798 26.9571 18.798 26.32H18.398C18.398 26.8869 18.2407 27.2508 17.9699 27.4652L18.2181 27.7788ZM18.798 26.32C18.798 25.678 18.6022 25.1877 18.2 24.886L17.96 25.206C18.2298 25.4083 18.398 25.758 18.398 26.32H18.798ZM18.2041 24.8892C17.8148 24.5809 17.2268 24.454 16.498 24.454V24.854C17.1972 24.854 17.6732 24.9791 17.9559 25.2028L18.2041 24.8892ZM16.498 24.454H14.118V24.854H16.498V24.454ZM21.0938 23.254V23.054H20.8938V23.254H21.0938ZM22.7318 23.254L22.8968 23.1409L22.8372 23.054H22.7318V23.254ZM27.6738 30.464L27.5089 30.5771L27.5684 30.664H27.6738V30.464ZM27.7298 30.464V30.664H27.9298V30.464H27.7298ZM27.7298 23.254V23.054H27.5298V23.254H27.7298ZM29.3818 23.254H29.5818V23.054H29.3818V23.254ZM29.3818 33.25V33.45H29.5818V33.25H29.3818ZM27.7858 33.25L27.6207 33.3629L27.6803 33.45H27.7858V33.25ZM22.7878 25.942L22.9529 25.8291L22.8933 25.742H22.7878V25.942ZM22.7318 25.942V25.742H22.5318V25.942H22.7318ZM22.7318 33.25V33.45H22.9318V33.25H22.7318ZM21.0938 33.25H20.8938V33.45H21.0938V33.25ZM21.0938 23.454H22.7318V23.054H21.0938V23.454ZM22.5669 23.3671L27.5089 30.5771L27.8388 30.3509L22.8968 23.1409L22.5669 23.3671ZM27.6738 30.664H27.7298V30.264H27.6738V30.664ZM27.9298 30.464V23.254H27.5298V30.464H27.9298ZM27.7298 23.454H29.3818V23.054H27.7298V23.454ZM29.1818 23.254V33.25H29.5818V23.254H29.1818ZM29.3818 33.05H27.7858V33.45H29.3818V33.05ZM27.9509 33.1371L22.9529 25.8291L22.6227 26.0549L27.6207 33.3629L27.9509 33.1371ZM22.7878 25.742H22.7318V26.142H22.7878V25.742ZM22.5318 25.942V33.25H22.9318V25.942H22.5318ZM22.7318 33.05H21.0938V33.45H22.7318V33.05ZM21.2938 33.25V23.254H20.8938V33.25H21.2938ZM38.1657 23.912L38.2892 23.7546L38.2881 23.7538L38.1657 23.912ZM39.5097 26.418V26.618H39.7449L39.7071 26.3859L39.5097 26.418ZM37.8577 26.418L37.6623 26.4605L37.6965 26.618H37.8577V26.418ZM36.9617 24.976L37.0785 24.8136L37.0761 24.8119L36.9617 24.976ZM32.9017 25.452L33.0508 25.5855L33.0543 25.5813L32.9017 25.452ZM32.8037 31.01L32.6509 31.139L32.6517 31.1399L32.8037 31.01ZM36.8357 31.85L36.8873 32.0433L36.8907 32.0423L36.8357 31.85ZM37.9137 31.388L38.0145 31.5608L38.1137 31.5029V31.388H37.9137ZM37.9137 29.33H38.1137V29.13H37.9137V29.33ZM35.2677 29.33H35.0677V29.53H35.2677V29.33ZM35.2677 27.93V27.73H35.0677V27.93H35.2677ZM39.5517 27.93H39.7517V27.73H39.5517V27.93ZM39.5517 32.158L39.6757 32.315L39.7517 32.2549V32.158H39.5517ZM37.7317 33.11L37.7906 33.3012L37.7938 33.3001L37.7317 33.11ZM31.5997 31.934L31.7502 31.8023L31.7498 31.8018L31.5997 31.934ZM31.5997 24.598L31.7517 24.728L31.753 24.7264L31.5997 24.598ZM35.1277 23.258C36.3885 23.258 37.3478 23.5321 38.0434 24.0702L38.2881 23.7538C37.4996 23.1439 36.443 22.858 35.1277 22.858V23.258ZM38.0423 24.0694C38.7083 24.5917 39.1365 25.3678 39.3123 26.4501L39.7071 26.3859C39.519 25.2282 39.0512 24.3523 38.2892 23.7546L38.0423 24.0694ZM39.5097 26.218H37.8577V26.618H39.5097V26.218ZM38.0532 26.3755C37.9039 25.689 37.5712 25.1678 37.0785 24.8136L36.845 25.1384C37.2483 25.4282 37.5315 25.859 37.6623 26.4605L38.0532 26.3755ZM37.0761 24.8119C36.5695 24.4588 35.9087 24.3 35.1277 24.3V24.7C35.8588 24.7 36.43 24.8492 36.8474 25.1401L37.0761 24.8119ZM35.1277 24.3C34.1408 24.3 33.3391 24.6269 32.7492 25.3227L33.0543 25.5813C33.5564 24.9891 34.2387 24.7 35.1277 24.7V24.3ZM32.7528 25.3185C32.1073 26.039 31.8057 27.0313 31.8057 28.294H32.2057C32.2057 27.0927 32.4921 26.209 33.0507 25.5854L32.7528 25.3185ZM31.8057 28.294C31.8057 29.4971 32.0776 30.4601 32.6509 31.139L32.9565 30.881C32.4659 30.2999 32.2057 29.4429 32.2057 28.294H31.8057ZM32.6517 31.1399C33.2765 31.8714 34.2384 32.218 35.4917 32.218V31.818C34.3091 31.818 33.479 31.4926 32.9558 30.8801L32.6517 31.1399ZM35.4917 32.218C35.9835 32.218 36.4489 32.1601 36.8873 32.0432L36.7842 31.6568C36.3825 31.7639 35.952 31.818 35.4917 31.818V32.218ZM36.8907 32.0423C37.2997 31.9254 37.6651 31.7646 38.0145 31.5608L37.813 31.2152C37.4904 31.4034 37.1557 31.5506 36.7808 31.6577L36.8907 32.0423ZM38.1137 31.388V29.33H37.7137V31.388H38.1137ZM37.9137 29.13H35.2677V29.53H37.9137V29.13ZM35.4677 29.33V27.93H35.0677V29.33H35.4677ZM35.2677 28.13H39.5517V27.73H35.2677V28.13ZM39.3517 27.93V32.158H39.7517V27.93H39.3517ZM39.4278 32.001C38.9168 32.4044 38.3365 32.7021 37.6697 32.9199L37.7938 33.3001C38.499 33.0699 39.1226 32.7516 39.6757 32.315L39.4278 32.001ZM37.6729 32.9188C36.9667 33.1361 36.1889 33.246 35.3097 33.246V33.646C36.2226 33.646 37.0408 33.5319 37.7906 33.3012L37.6729 32.9188ZM35.3097 33.246C33.7596 33.246 32.5871 32.7587 31.7502 31.8023L31.4492 32.0657C32.3763 33.1253 33.6679 33.646 35.3097 33.646V33.246ZM31.7498 31.8018C30.9624 30.9076 30.5677 29.74 30.5677 28.294H30.1677C30.1677 29.816 30.5851 31.0844 31.4496 32.0662L31.7498 31.8018ZM30.5677 28.294C30.5677 26.8339 30.9625 25.651 31.7517 24.728L31.4477 24.468C30.585 25.477 30.1677 26.7581 30.1677 28.294H30.5677ZM31.753 24.7264C32.5781 23.7417 33.6948 23.258 35.1277 23.258V22.858C33.5927 22.858 32.3573 23.3823 31.4464 24.4696L31.753 24.7264Z" fill="#FFAC30"/>
</svg>
