<svg width="44" height="44" viewBox="0 0 44 44" fill="none" xmlns="http://www.w3.org/2000/svg">
<path d="M11 10.75V13.75C11 14.3023 10.5523 14.75 10 14.75H4C3.44772 14.75 3 14.3023 3 13.75V11.1832C3 10.9068 3.11441 10.6427 3.31606 10.4537L10.7115 3.52046C10.8969 3.3467 11.1414 3.25 11.3954 3.25H32.5C33.0523 3.25 33.5 3.69772 33.5 4.25V16.75V21.25" stroke="#CB472D" stroke-width="2.6"/>
<path d="M33.5 37.25V39.75C33.5 40.3023 33.0523 40.75 32.5 40.75H5C4.44771 40.75 4 40.3023 4 39.75V20.25" stroke="#CB472D" stroke-width="2.6"/>
<path d="M15.98 24.254H20.124C22.532 24.254 23.75 25.276 23.75 27.32C23.75 29.378 22.532 30.414 20.096 30.414H17.618V34.25H15.98V24.254ZM17.618 25.654V29.014H19.998C20.726 29.014 21.258 28.874 21.594 28.622C21.93 28.356 22.098 27.922 22.098 27.32C22.098 26.718 21.916 26.298 21.58 26.046C21.244 25.78 20.712 25.654 19.998 25.654H17.618ZM24.5938 24.254H28.7378C31.1458 24.254 32.3638 25.276 32.3638 27.32C32.3638 29.378 31.1458 30.414 28.7098 30.414H26.2318V34.25H24.5938V24.254ZM26.2318 25.654V29.014H28.6118C29.3398 29.014 29.8718 28.874 30.2078 28.622C30.5438 28.356 30.7118 27.922 30.7118 27.32C30.7118 26.718 30.5298 26.298 30.1938 26.046C29.8578 25.78 29.3258 25.654 28.6118 25.654H26.2318ZM32.4377 24.254H40.6277V25.654H37.3517V34.25H35.7137V25.654H32.4377V24.254Z" fill="#CB472D"/>
<path d="M15.98 24.254V24.054H15.78V24.254H15.98ZM17.618 30.414V30.214H17.418V30.414H17.618ZM17.618 34.25V34.45H17.818V34.25H17.618ZM15.98 34.25H15.78V34.45H15.98V34.25ZM17.618 25.654V25.454H17.418V25.654H17.618ZM17.618 29.014H17.418V29.214H17.618V29.014ZM21.594 28.622L21.714 28.7821L21.7181 28.7788L21.594 28.622ZM21.58 26.046L21.4558 26.2029L21.46 26.206L21.58 26.046ZM15.98 24.454H20.124V24.054H15.98V24.454ZM20.124 24.454C21.3044 24.454 22.1563 24.7052 22.711 25.1733C23.2593 25.6361 23.55 26.3389 23.55 27.32H23.95C23.95 26.2571 23.6317 25.4269 22.969 24.8677C22.3127 24.3138 21.3516 24.054 20.124 24.054V24.454ZM23.55 27.32C23.55 28.3085 23.259 29.0184 22.7072 29.4862C22.149 29.9593 21.2903 30.214 20.096 30.214V30.614C21.3377 30.614 22.306 30.3507 22.9658 29.7913C23.632 29.2266 23.95 28.3895 23.95 27.32H23.55ZM20.096 30.214H17.618V30.614H20.096V30.214ZM17.418 30.414V34.25H17.818V30.414H17.418ZM17.618 34.05H15.98V34.45H17.618V34.05ZM16.18 34.25V24.254H15.78V34.25H16.18ZM17.418 25.654V29.014H17.818V25.654H17.418ZM17.618 29.214H19.998V28.814H17.618V29.214ZM19.998 29.214C20.7452 29.214 21.3281 29.0714 21.714 28.782L21.474 28.462C21.1879 28.6766 20.7068 28.814 19.998 28.814V29.214ZM21.7181 28.7788C22.1193 28.4612 22.298 27.9571 22.298 27.32H21.898C21.898 27.8869 21.7407 28.2508 21.4699 28.4652L21.7181 28.7788ZM22.298 27.32C22.298 26.678 22.1022 26.1877 21.7 25.886L21.46 26.206C21.7298 26.4083 21.898 26.758 21.898 27.32H22.298ZM21.7041 25.8892C21.3148 25.5809 20.7268 25.454 19.998 25.454V25.854C20.6972 25.854 21.1732 25.9791 21.4559 26.2028L21.7041 25.8892ZM19.998 25.454H17.618V25.854H19.998V25.454ZM24.5938 24.254V24.054H24.3938V24.254H24.5938ZM26.2318 30.414V30.214H26.0318V30.414H26.2318ZM26.2318 34.25V34.45H26.4318V34.25H26.2318ZM24.5938 34.25H24.3938V34.45H24.5938V34.25ZM26.2318 25.654V25.454H26.0318V25.654H26.2318ZM26.2318 29.014H26.0318V29.214H26.2318V29.014ZM30.2078 28.622L30.3279 28.7821L30.332 28.7788L30.2078 28.622ZM30.1938 26.046L30.0696 26.2029L30.0738 26.206L30.1938 26.046ZM24.5938 24.454H28.7378V24.054H24.5938V24.454ZM28.7378 24.454C29.9182 24.454 30.7701 24.7052 31.3248 25.1733C31.8731 25.6361 32.1638 26.3389 32.1638 27.32H32.5638C32.5638 26.2571 32.2455 25.4269 31.5828 24.8677C30.9266 24.3138 29.9654 24.054 28.7378 24.054V24.454ZM32.1638 27.32C32.1638 28.3085 31.8729 29.0184 31.321 29.4862C30.7628 29.9593 29.9042 30.214 28.7098 30.214V30.614C29.9515 30.614 30.9198 30.3507 31.5797 29.7913C32.2458 29.2266 32.5638 28.3895 32.5638 27.32H32.1638ZM28.7098 30.214H26.2318V30.614H28.7098V30.214ZM26.0318 30.414V34.25H26.4318V30.414H26.0318ZM26.2318 34.05H24.5938V34.45H26.2318V34.05ZM24.7938 34.25V24.254H24.3938V34.25H24.7938ZM26.0318 25.654V29.014H26.4318V25.654H26.0318ZM26.2318 29.214H28.6118V28.814H26.2318V29.214ZM28.6118 29.214C29.3591 29.214 29.9419 29.0714 30.3278 28.782L30.0878 28.462C29.8017 28.6766 29.3206 28.814 28.6118 28.814V29.214ZM30.332 28.7788C30.7332 28.4612 30.9118 27.9571 30.9118 27.32H30.5118C30.5118 27.8869 30.3545 28.2508 30.0837 28.4652L30.332 28.7788ZM30.9118 27.32C30.9118 26.678 30.7161 26.1877 30.3138 25.886L30.0738 26.206C30.3436 26.4083 30.5118 26.758 30.5118 27.32H30.9118ZM30.318 25.8892C29.9286 25.5809 29.3406 25.454 28.6118 25.454V25.854C29.311 25.854 29.7871 25.9791 30.0697 26.2028L30.318 25.8892ZM28.6118 25.454H26.2318V25.854H28.6118V25.454ZM32.4377 24.254V24.054H32.2377V24.254H32.4377ZM40.6277 24.254H40.8277V24.054H40.6277V24.254ZM40.6277 25.654V25.854H40.8277V25.654H40.6277ZM37.3517 25.654V25.454H37.1517V25.654H37.3517ZM37.3517 34.25V34.45H37.5517V34.25H37.3517ZM35.7137 34.25H35.5137V34.45H35.7137V34.25ZM35.7137 25.654H35.9137V25.454H35.7137V25.654ZM32.4377 25.654H32.2377V25.854H32.4377V25.654ZM32.4377 24.454H40.6277V24.054H32.4377V24.454ZM40.4277 24.254V25.654H40.8277V24.254H40.4277ZM40.6277 25.454H37.3517V25.854H40.6277V25.454ZM37.1517 25.654V34.25H37.5517V25.654H37.1517ZM37.3517 34.05H35.7137V34.45H37.3517V34.05ZM35.9137 34.25V25.654H35.5137V34.25H35.9137ZM35.7137 25.454H32.4377V25.854H35.7137V25.454ZM32.6377 25.654V24.254H32.2377V25.654H32.6377Z" fill="#CB472D"/>
</svg>
