<?xml version="1.0" standalone="no"?><!DOCTYPE svg PUBLIC "-//W3C//DTD SVG 1.1//EN" "http://www.w3.org/Graphics/SVG/1.1/DTD/svg11.dtd"><svg class="icon" width="200px" height="200.00px" viewBox="0 0 1024 1024" version="1.1" xmlns="http://www.w3.org/2000/svg"><path fill="#303133" d="M273.605 418.57c11.716 11.716 11.716 30.711 0 42.427-11.716 11.716-30.71 11.716-42.426 0L72.787 302.605c-11.716-11.716-11.716-30.71 0-42.426l158.392-158.392c11.715-11.716 30.71-11.716 42.426 0 11.716 11.716 11.716 30.71 0 42.426L166.817 251H620c187.777 0 340 152.223 340 340S807.777 931 620 931H182c-16.569 0-30-13.431-30-30 0-16.569 13.431-30 30-30h438c154.64 0 280-125.36 280-280S774.64 311 620 311H166.035l107.57 107.57z"  /></svg>