<svg width="44" height="44" viewBox="0 0 44 44" fill="none" xmlns="http://www.w3.org/2000/svg">
<path d="M10.5 10.75V13.75C10.5 14.3023 10.0523 14.75 9.5 14.75H3.5C2.94772 14.75 2.5 14.3023 2.5 13.75V11.1832C2.5 10.9068 2.61441 10.6427 2.81606 10.4537L10.2115 3.52046C10.3969 3.3467 10.6414 3.25 10.8954 3.25H32C32.5523 3.25 33 3.69772 33 4.25V16.75V21.25" stroke="#305894" stroke-width="2.6"/>
<path d="M33 37.25V39.75C33 40.3023 32.5523 40.75 32 40.75H4.5C3.94771 40.75 3.5 40.3023 3.5 39.75V20.25" stroke="#305894" stroke-width="2.6"/>
<path d="M11.48 23.254H15.134C16.758 23.254 17.976 23.702 18.816 24.598C19.614 25.438 20.02 26.656 20.02 28.252C20.02 29.834 19.614 31.052 18.816 31.906C17.976 32.802 16.758 33.25 15.134 33.25H11.48V23.254ZM13.118 24.654V31.85H14.826C16.072 31.85 16.982 31.556 17.556 30.982C18.116 30.394 18.396 29.484 18.396 28.252C18.396 26.992 18.116 26.068 17.556 25.508C16.982 24.934 16.072 24.654 14.826 24.654H13.118ZM25.4342 23.058C26.9602 23.058 28.1642 23.548 29.0462 24.542C29.8862 25.48 30.3062 26.726 30.3062 28.266C30.3062 29.806 29.8862 31.038 29.0462 31.976C28.1642 32.956 26.9602 33.446 25.4342 33.446C23.8942 33.446 22.6902 32.942 21.8222 31.962C20.9822 31.01 20.5762 29.778 20.5762 28.266C20.5762 26.74 20.9822 25.508 21.8222 24.556C22.6902 23.548 23.8942 23.058 25.4342 23.058ZM25.4342 24.5C24.3982 24.5 23.6002 24.85 23.0262 25.55C22.4802 26.222 22.2142 27.118 22.2142 28.266C22.2142 29.4 22.4802 30.296 23.0262 30.968C23.5862 31.654 24.3982 32.004 25.4342 32.004C26.4702 32.004 27.2682 31.668 27.8282 31.01C28.3742 30.352 28.6542 29.442 28.6542 28.266C28.6542 27.09 28.3742 26.166 27.8282 25.494C27.2682 24.822 26.4702 24.5 25.4342 24.5ZM35.6316 23.058C36.8076 23.058 37.7876 23.366 38.5436 23.982C39.2716 24.57 39.7056 25.382 39.8596 26.39H38.2636C38.0956 25.732 37.7876 25.256 37.3256 24.948C36.8776 24.64 36.3036 24.5 35.6036 24.5C34.5536 24.5 33.7696 24.85 33.2376 25.578C32.7476 26.222 32.5096 27.118 32.5096 28.266C32.5096 29.442 32.7476 30.352 33.2236 30.982C33.7416 31.654 34.5536 32.004 35.6456 32.004C36.3596 32.004 36.9476 31.822 37.3956 31.486C37.8716 31.108 38.2076 30.534 38.4036 29.778H39.9996C39.7756 30.954 39.2576 31.864 38.4316 32.522C37.6616 33.138 36.7376 33.446 35.6596 33.446C33.9936 33.446 32.7476 32.914 31.9356 31.878C31.2216 30.982 30.8716 29.778 30.8716 28.266C30.8716 26.782 31.2356 25.564 31.9776 24.64C32.8176 23.576 34.0356 23.058 35.6316 23.058Z" fill="#305894"/>
<path d="M11.48 23.254V23.054H11.28V23.254H11.48ZM18.816 24.598L18.6701 24.7348L18.671 24.7357L18.816 24.598ZM18.816 31.906L18.9619 32.0428L18.9621 32.0425L18.816 31.906ZM11.48 33.25H11.28V33.45H11.48V33.25ZM13.118 24.654V24.454H12.918V24.654H13.118ZM13.118 31.85H12.918V32.05H13.118V31.85ZM17.556 30.982L17.6975 31.1235L17.7008 31.1199L17.556 30.982ZM17.556 25.508L17.4146 25.6494L17.4146 25.6494L17.556 25.508ZM11.48 23.454H15.134V23.054H11.48V23.454ZM15.134 23.454C16.7208 23.454 17.8787 23.8906 18.6701 24.7348L18.9619 24.4612C18.0733 23.5134 16.7952 23.054 15.134 23.054V23.454ZM18.671 24.7357C19.4226 25.5269 19.82 26.6885 19.82 28.252H20.22C20.22 26.6235 19.8054 25.3491 18.961 24.4602L18.671 24.7357ZM19.82 28.252C19.82 29.8007 19.423 30.9635 18.6699 31.7695L18.9621 32.0425C19.805 31.1405 20.22 29.8673 20.22 28.252H19.82ZM18.6701 31.7692C17.8787 32.6134 16.7208 33.05 15.134 33.05V33.45C16.7952 33.45 18.0733 32.9906 18.9619 32.0428L18.6701 31.7692ZM15.134 33.05H11.48V33.45H15.134V33.05ZM11.68 33.25V23.254H11.28V33.25H11.68ZM12.918 24.654V31.85H13.318V24.654H12.918ZM13.118 32.05H14.826V31.65H13.118V32.05ZM14.826 32.05C16.0985 32.05 17.0706 31.7503 17.6974 31.1234L17.4146 30.8406C16.8934 31.3617 16.0455 31.65 14.826 31.65V32.05ZM17.7008 31.1199C18.3108 30.4795 18.596 29.5094 18.596 28.252H18.196C18.196 29.4586 17.9212 30.3085 17.4112 30.8441L17.7008 31.1199ZM18.596 28.252C18.596 26.97 18.3123 25.9814 17.6974 25.3666L17.4146 25.6494C17.9197 26.1546 18.196 27.014 18.196 28.252H18.596ZM17.6974 25.3666C17.0695 24.7386 16.096 24.454 14.826 24.454V24.854C16.048 24.854 16.8945 25.1294 17.4146 25.6494L17.6974 25.3666ZM14.826 24.454H13.118V24.854H14.826V24.454ZM29.0462 24.542L28.8966 24.6747L28.8972 24.6754L29.0462 24.542ZM29.0462 31.976L29.1948 32.1098L29.1952 32.1094L29.0462 31.976ZM21.8222 31.962L21.6722 32.0943L21.6725 32.0946L21.8222 31.962ZM21.8222 24.556L21.9722 24.6883L21.9737 24.6865L21.8222 24.556ZM23.0262 25.55L22.8715 25.4232L22.8709 25.4239L23.0262 25.55ZM23.0262 30.968L22.8709 31.0941L22.8712 31.0945L23.0262 30.968ZM27.8282 31.01L27.9805 31.1396L27.9821 31.1377L27.8282 31.01ZM27.8282 25.494L27.9834 25.3679L27.9818 25.366L27.8282 25.494ZM25.4342 23.258C26.9131 23.258 28.0588 23.7306 28.8966 24.6747L29.1958 24.4093C28.2696 23.3654 27.0072 22.858 25.4342 22.858V23.258ZM28.8972 24.6754C29.6973 25.5688 30.1062 26.7635 30.1062 28.266H30.5062C30.5062 26.6885 30.0751 25.3912 29.1952 24.4086L28.8972 24.6754ZM30.1062 28.266C30.1062 29.768 29.6975 30.9488 28.8972 31.8426L29.1952 32.1094C30.0748 31.1272 30.5062 29.844 30.5062 28.266H30.1062ZM28.8975 31.8422C28.0596 32.7733 26.9133 33.246 25.4342 33.246V33.646C27.007 33.646 28.2688 33.1387 29.1948 32.1098L28.8975 31.8422ZM25.4342 33.246C23.9419 33.246 22.796 32.7599 21.9719 31.8294L21.6725 32.0946C22.5843 33.1241 23.8464 33.646 25.4342 33.646V33.246ZM21.9721 31.8297C21.1712 30.9219 20.7762 29.7407 20.7762 28.266H20.3762C20.3762 29.8153 20.7932 31.0981 21.6722 32.0943L21.9721 31.8297ZM20.7762 28.266C20.7762 26.7771 21.1713 25.5959 21.9721 24.6883L21.6722 24.4237C20.793 25.4201 20.3762 26.7029 20.3762 28.266H20.7762ZM21.9737 24.6865C22.7967 23.7308 23.9406 23.258 25.4342 23.258V22.858C23.8477 22.858 22.5837 23.3652 21.6706 24.4255L21.9737 24.6865ZM25.4342 24.3C24.3475 24.3 23.489 24.6702 22.8715 25.4232L23.1808 25.6768C23.7114 25.0298 24.4489 24.7 25.4342 24.7V24.3ZM22.8709 25.4239C22.2875 26.1419 22.0142 27.0876 22.0142 28.266H22.4142C22.4142 27.1484 22.6728 26.3021 23.1814 25.6761L22.8709 25.4239ZM22.0142 28.266C22.0142 29.4308 22.2877 30.3763 22.8709 31.0941L23.1814 30.8419C22.6727 30.2157 22.4142 29.3692 22.4142 28.266H22.0142ZM22.8712 31.0945C23.4758 31.8351 24.3493 32.204 25.4342 32.204V31.804C24.447 31.804 23.6965 31.4729 23.1811 30.8415L22.8712 31.0945ZM25.4342 32.204C26.5172 32.204 27.3755 31.8504 27.9805 31.1396L27.6759 30.8804C27.1608 31.4856 26.4232 31.804 25.4342 31.804V32.204ZM27.9821 31.1377C28.5667 30.4332 28.8542 29.4727 28.8542 28.266H28.4542C28.4542 29.4113 28.1817 30.2708 27.6743 30.8823L27.9821 31.1377ZM28.8542 28.266C28.8542 27.0593 28.5667 26.0858 27.9834 25.3679L27.6729 25.6201C28.1816 26.2462 28.4542 27.1207 28.4542 28.266H28.8542ZM27.9818 25.366C27.3754 24.6383 26.515 24.3 25.4342 24.3V24.7C26.4253 24.7 27.1609 25.0057 27.6745 25.622L27.9818 25.366ZM38.5436 23.982L38.4173 24.137L38.418 24.1376L38.5436 23.982ZM39.8596 26.39V26.59H40.0925L40.0573 26.3598L39.8596 26.39ZM38.2636 26.39L38.0699 26.4395L38.1083 26.59H38.2636V26.39ZM37.3256 24.948L37.2123 25.1128L37.2147 25.1144L37.3256 24.948ZM33.2376 25.578L33.3968 25.6991L33.3991 25.696L33.2376 25.578ZM33.2236 30.982L33.0641 31.1026L33.0652 31.1041L33.2236 30.982ZM37.3956 31.486L37.5157 31.6461L37.52 31.6426L37.3956 31.486ZM38.4036 29.778V29.578H38.2489L38.21 29.7278L38.4036 29.778ZM39.9996 29.778L40.1961 29.8154L40.2413 29.578H39.9996V29.778ZM38.4316 32.522L38.307 32.3656L38.3067 32.3658L38.4316 32.522ZM31.9356 31.878L32.0931 31.7546L32.0921 31.7534L31.9356 31.878ZM31.9776 24.64L32.1336 24.7652L32.1346 24.7639L31.9776 24.64ZM35.6316 23.258C36.7721 23.258 37.7043 23.5561 38.4173 24.137L38.67 23.827C37.8709 23.1759 36.8432 22.858 35.6316 22.858V23.258ZM38.418 24.1376C39.1021 24.6901 39.5144 25.4546 39.6619 26.4202L40.0573 26.3598C39.8969 25.3094 39.4412 24.4499 38.6693 23.8264L38.418 24.1376ZM39.8596 26.19H38.2636V26.59H39.8596V26.19ZM38.4574 26.3405C38.2802 25.6464 37.9488 25.123 37.4366 24.7816L37.2147 25.1144C37.6265 25.389 37.9111 25.8176 38.0699 26.4395L38.4574 26.3405ZM37.4389 24.7832C36.9469 24.4449 36.3289 24.3 35.6036 24.3V24.7C36.2784 24.7 36.8083 24.8351 37.2123 25.1128L37.4389 24.7832ZM35.6036 24.3C34.5036 24.3 33.6533 24.6703 33.0762 25.46L33.3991 25.696C33.886 25.0297 34.6037 24.7 35.6036 24.7V24.3ZM33.0785 25.4569C32.5524 26.1483 32.3096 27.0933 32.3096 28.266H32.7096C32.7096 27.1427 32.9429 26.2957 33.3968 25.6991L33.0785 25.4569ZM32.3096 28.266C32.3096 29.4649 32.5516 30.4244 33.0641 31.1026L33.3832 30.8614C32.9436 30.2796 32.7096 29.4191 32.7096 28.266H32.3096ZM33.0652 31.1041C33.6307 31.8376 34.5091 32.204 35.6456 32.204V31.804C34.5981 31.804 33.8526 31.4704 33.382 30.8599L33.0652 31.1041ZM35.6456 32.204C36.3938 32.204 37.0264 32.0129 37.5156 31.646L37.2756 31.326C36.8689 31.6311 36.3254 31.804 35.6456 31.804V32.204ZM37.52 31.6426C38.0392 31.2304 38.3937 30.6134 38.5972 29.8282L38.21 29.7278C38.0216 30.4546 37.7041 30.9856 37.2713 31.3294L37.52 31.6426ZM38.4036 29.978H39.9996V29.578H38.4036V29.978ZM39.8032 29.7406C39.5868 30.8766 39.0904 31.7416 38.307 32.3656L38.5563 32.6784C39.4249 31.9864 39.9645 31.0314 40.1961 29.8154L39.8032 29.7406ZM38.3067 32.3658C37.5755 32.9508 36.6967 33.246 35.6596 33.246V33.646C36.7785 33.646 37.7477 33.3252 38.5566 32.6782L38.3067 32.3658ZM35.6596 33.246C34.0385 33.246 32.8579 32.7305 32.0931 31.7546L31.7782 32.0014C32.6373 33.0975 33.9488 33.646 35.6596 33.646V33.246ZM32.0921 31.7534C31.4146 30.9032 31.0716 29.7481 31.0716 28.266H30.6716C30.6716 29.8079 31.0287 31.0608 31.7792 32.0026L32.0921 31.7534ZM31.0716 28.266C31.0716 26.8144 31.4273 25.6447 32.1336 24.7652L31.8217 24.5148C31.0439 25.4833 30.6716 26.7496 30.6716 28.266H31.0716ZM32.1346 24.7639C32.9289 23.7578 34.0831 23.258 35.6316 23.258V22.858C33.9881 22.858 32.7063 23.3942 31.8207 24.5161L32.1346 24.7639Z" fill="#305894"/>
</svg>
