<svg width="44" height="44" viewBox="0 0 44 44" fill="none" xmlns="http://www.w3.org/2000/svg">
<path d="M12 10.75V13.75C12 14.3023 11.5523 14.75 11 14.75H5C4.44772 14.75 4 14.3023 4 13.75V11.1832C4 10.9068 4.11441 10.6427 4.31606 10.4537L11.7115 3.52046C11.8969 3.3467 12.1414 3.25 12.3954 3.25H33.5C34.0523 3.25 34.5 3.69772 34.5 4.25V16.75V21.25" stroke="#FF7324" stroke-width="2.6"/>
<path d="M34.5 37.25V39.75C34.5 40.3023 34.0523 40.75 33.5 40.75H6C5.44771 40.75 5 40.3023 5 39.75V20.25" stroke="#FF7324" stroke-width="2.6"/>
<path d="M19.77 23.254H27.26V24.556L21.492 31.85H27.596V33.25H19.35V31.962L25.132 24.654H19.77V23.254ZM28.3614 23.254H29.9994V33.25H28.3614V23.254ZM31.3971 23.254H35.5411C37.9491 23.254 39.1671 24.276 39.1671 26.32C39.1671 28.378 37.9491 29.414 35.5131 29.414H33.0351V33.25H31.3971V23.254ZM33.0351 24.654V28.014H35.4151C36.1431 28.014 36.6751 27.874 37.0111 27.622C37.3471 27.356 37.5151 26.922 37.5151 26.32C37.5151 25.718 37.3331 25.298 36.9971 25.046C36.6611 24.78 36.1291 24.654 35.4151 24.654H33.0351Z" fill="#FF7324"/>
<path d="M19.77 23.254V23.054H19.57V23.254H19.77ZM27.26 23.254H27.46V23.054H27.26V23.254ZM27.26 24.556L27.4169 24.6801L27.46 24.6255V24.556H27.26ZM21.492 31.85L21.3351 31.7259L21.0789 32.05H21.492V31.85ZM27.596 31.85H27.796V31.65H27.596V31.85ZM27.596 33.25V33.45H27.796V33.25H27.596ZM19.35 33.25H19.15V33.45H19.35V33.25ZM19.35 31.962L19.1932 31.8379L19.15 31.8924V31.962H19.35ZM25.132 24.654L25.2888 24.7781L25.5453 24.454H25.132V24.654ZM19.77 24.654H19.57V24.854H19.77V24.654ZM19.77 23.454H27.26V23.054H19.77V23.454ZM27.06 23.254V24.556H27.46V23.254H27.06ZM27.1031 24.4319L21.3351 31.7259L21.6489 31.9741L27.4169 24.6801L27.1031 24.4319ZM21.492 32.05H27.596V31.65H21.492V32.05ZM27.396 31.85V33.25H27.796V31.85H27.396ZM27.596 33.05H19.35V33.45H27.596V33.05ZM19.55 33.25V31.962H19.15V33.25H19.55ZM19.5068 32.0861L25.2888 24.7781L24.9752 24.5299L19.1932 31.8379L19.5068 32.0861ZM25.132 24.454H19.77V24.854H25.132V24.454ZM19.97 24.654V23.254H19.57V24.654H19.97ZM28.3614 23.254V23.054H28.1614V23.254H28.3614ZM29.9994 23.254H30.1994V23.054H29.9994V23.254ZM29.9994 33.25V33.45H30.1994V33.25H29.9994ZM28.3614 33.25H28.1614V33.45H28.3614V33.25ZM28.3614 23.454H29.9994V23.054H28.3614V23.454ZM29.7994 23.254V33.25H30.1994V23.254H29.7994ZM29.9994 33.05H28.3614V33.45H29.9994V33.05ZM28.5614 33.25V23.254H28.1614V33.25H28.5614ZM31.3971 23.254V23.054H31.1971V23.254H31.3971ZM33.0351 29.414V29.214H32.8351V29.414H33.0351ZM33.0351 33.25V33.45H33.2351V33.25H33.0351ZM31.3971 33.25H31.1971V33.45H31.3971V33.25ZM33.0351 24.654V24.454H32.8351V24.654H33.0351ZM33.0351 28.014H32.8351V28.214H33.0351V28.014ZM37.0111 27.622L37.1312 27.7821L37.1353 27.7788L37.0111 27.622ZM36.9971 25.046L36.8729 25.2029L36.8771 25.206L36.9971 25.046ZM31.3971 23.454H35.5411V23.054H31.3971V23.454ZM35.5411 23.454C36.7215 23.454 37.5734 23.7052 38.1281 24.1733C38.6764 24.6361 38.9671 25.3389 38.9671 26.32H39.3671C39.3671 25.2571 39.0488 24.4269 38.3861 23.8677C37.7298 23.3138 36.7687 23.054 35.5411 23.054V23.454ZM38.9671 26.32C38.9671 27.3085 38.6762 28.0184 38.1243 28.4862C37.5661 28.9593 36.7075 29.214 35.5131 29.214V29.614C36.7548 29.614 37.7231 29.3507 38.3829 28.7913C39.0491 28.2266 39.3671 27.3895 39.3671 26.32H38.9671ZM35.5131 29.214H33.0351V29.614H35.5131V29.214ZM32.8351 29.414V33.25H33.2351V29.414H32.8351ZM33.0351 33.05H31.3971V33.45H33.0351V33.05ZM31.5971 33.25V23.254H31.1971V33.25H31.5971ZM32.8351 24.654V28.014H33.2351V24.654H32.8351ZM33.0351 28.214H35.4151V27.814H33.0351V28.214ZM35.4151 28.214C36.1623 28.214 36.7452 28.0714 37.1311 27.782L36.8911 27.462C36.605 27.6766 36.1239 27.814 35.4151 27.814V28.214ZM37.1353 27.7788C37.5364 27.4612 37.7151 26.9571 37.7151 26.32H37.3151C37.3151 26.8869 37.1578 27.2508 36.887 27.4652L37.1353 27.7788ZM37.7151 26.32C37.7151 25.678 37.5194 25.1877 37.1171 24.886L36.8771 25.206C37.1469 25.4083 37.3151 25.758 37.3151 26.32H37.7151ZM37.1213 24.8892C36.7319 24.5809 36.1439 24.454 35.4151 24.454V24.854C36.1143 24.854 36.5904 24.9791 36.873 25.2028L37.1213 24.8892ZM35.4151 24.454H33.0351V24.854H35.4151V24.454Z" fill="#FF7324"/>
</svg>
