<?xml version="1.0" encoding="UTF-8"?>
<svg width="40px" height="31px" viewBox="0 0 40 31" version="1.1" xmlns="http://www.w3.org/2000/svg" xmlns:xlink="http://www.w3.org/1999/xlink">
    <title>编组 112备份 6</title>
    <defs>
        <polygon id="path-1" points="0 0 8.18685121 0 8.18685121 7.98165138 0 7.98165138"></polygon>
        <polygon id="path-3" points="0 0 8.18685121 0 8.18685121 7.98165138 0 7.98165138"></polygon>
    </defs>
    <g id="页面-1" stroke="none" stroke-width="1" fill="none" fill-rule="evenodd">
        <g id="框架-收起" transform="translate(-442.000000, -17.000000)">
            <g id="编组-6" transform="translate(7.000000, 16.000000)">
                <g id="编组-112备份-6" transform="translate(435.000000, 1.000000)">
                    <g id="编组-135" fill="#000000">
                        <polygon id="路径-13备份-2" points="18.7496206 5.13312462 3.95716385 17.4932654 8.32059492 17.908887 18.7496206 9.1732057 24.2674729 13.0070905 26.1502515 11.5210058"></polygon>
                        <polygon id="路径-13备份-3" points="29.9309675 5.13312462 25.1401287 8.99736024 26.9226907 10.586263 29.9309675 8.11101188 34.5502889 11.995502 36 10.8273058"></polygon>
                        <polyline id="路径-14备份-3" points="9.60312589 15.6746677 9.60312589 25.3317384 14.2529798 25.3317384 14.2529798 23.5813534 11.6006292 23.5813534 11.6006292 14.8699251"></polyline>
                        <path d="M25.4863317,6.82680877 L27.2642177,5.28876634 C24.3695893,2.10507273 21.0862381,0.359536825 17.414164,0.0521586337 C15.4808235,-0.0741918352 13.0975791,-0.0142938441 10.7873679,0.724461382 C6.30060134,2.15923163 0.83742655,6.42420304 0.0132549238,13.9366803 C-0.359852592,26.0118945 7.23616605,29.1889549 11.145983,30.5901322 C12.7390055,31 18.2145494,31.7507151 22.5926662,28.9680249 C22.6648653,28.9246459 23.5533182,28.4060156 23.9749946,28.0148348 C24.4846085,27.5755467 25.1826386,26.9269137 26.0690847,26.0689358 L20.9204239,26.0689358 L22.0609805,27.1808612 C21.7359647,27.372443 21.5236571,27.489902 21.4240577,27.5332384 C21.2746587,27.5982431 17.1671527,29.9864249 11.9427885,28.6398919 C9.43152488,27.9872084 1.43220438,24.0745591 2.02898462,14.3294418 C2.73233558,6.82680877 9.41491639,1.01583346 17.414164,2.19610158 C20.3776963,2.68613116 23.0684189,4.22970022 25.4863317,6.82680877 Z" id="路径-15备份"></path>
                    </g>
                    <g id="编组" transform="translate(14.000000, 15.000000)">
                        <g transform="translate(0.000000, 0.018349)">
                            <mask id="mask-2" fill="white">
                                <use xlink:href="#path-1"></use>
                            </mask>
                            <g id="Clip-2"></g>
                            <path d="M1.57539705,1.04014425 C1.43382184,1.04014425 1.36314231,1.114802 1.36314231,1.26411752 L1.36314231,4.40877836 L6.48751642,4.40877836 C6.71165915,4.40877836 6.82383859,4.28537907 6.82383859,4.03881826 L6.82383859,1.4978391 C6.82383859,1.19278845 6.71165915,1.04014425 6.48751642,1.04014425 L1.57539705,1.04014425 Z M7.16902273,-7.1329068e-05 C7.3399937,-7.1329068e-05 7.51096468,0.0453415109 7.68236795,0.136167191 C8.01869012,0.324713694 8.18685121,0.652351879 8.18685121,1.11955727 L8.18685121,4.32936533 C8.18685121,4.79657073 8.01869012,5.12444668 7.68236795,5.31275542 C7.51096468,5.4035811 7.3399937,5.44899394 7.16902273,5.44899394 L1.36314231,5.44899394 L1.36314231,7.75791587 C1.36314231,7.90699362 1.29505652,7.98165138 1.15953338,7.98165138 L0.203522468,7.98165138 C0.0677831838,7.98165138 -8.64581425e-05,7.90699362 -8.64581425e-05,7.75791587 L-8.64581425e-05,0.223901944 C-8.64581425e-05,0.0745864287 0.0677831838,-7.1329068e-05 0.203522468,-7.1329068e-05 L7.16902273,-7.1329068e-05 Z" id="Fill-1" fill="#000000" mask="url(#mask-2)"></path>
                        </g>
                        <g transform="translate(9.064014, 0.018349)">
                            <mask id="mask-4" fill="white">
                                <use xlink:href="#path-3"></use>
                            </mask>
                            <g id="Clip-4"></g>
                            <path d="M0,0.223878835 C0,0.0748006388 0.0676545683,-9.51057074e-05 0.203612151,-9.51057074e-05 L1.15942206,-9.51057074e-05 C1.29516349,-9.51057074e-05 1.36303421,0.0748006388 1.36303421,0.223878835 L1.36303421,6.56196093 C1.36303421,6.81494211 1.47802536,6.94167047 1.70822381,6.94167047 L7.47365129,6.94167047 C7.60917657,6.94167047 7.67704729,7.01632845 7.67704729,7.16540664 L7.67704729,7.7579152 C7.67704729,7.9069934 7.60917657,7.98165138 7.47365129,7.98165138 L1.02670671,7.98165138 C0.601974354,7.98165138 0.303905185,7.79334208 0.132715351,7.417199 C0.0443105,7.2288897 0,7.04081817 0,6.85250887 L0,0.223878835 Z" id="Fill-3" fill="#000000" mask="url(#mask-4)"></path>
                        </g>
                        <path d="M17.8131488,0.222282797 C17.8131488,0.0743302345 17.8808034,0 18.0165448,0 L19.4327516,0 C19.4917602,0 19.5419067,0.0226530239 19.5831912,0.0677231026 L21.9108974,3.38161476 L24.2388197,0.0677231026 C24.279888,0.0226530239 24.3300345,0 24.3892593,0 L25.796604,0 C25.9321293,0 26,0.0743302345 26,0.222282797 L26,7.77795317 C26,7.92590573 25.9321293,8 25.796604,8 L24.8405779,8 C24.7048365,8 24.6369658,7.92590573 24.6369658,7.77795317 L24.6369658,3.63528143 C24.6369658,3.53239895 24.5926553,3.46137228 24.5042504,3.42267337 C24.4214655,3.38421042 24.3477587,3.40332391 24.2831302,3.48072174 L22.4685612,5.65470412 C22.4272768,5.6997742 22.3769141,5.72242723 22.3181217,5.72242723 L21.5038892,5.72242723 C21.4448806,5.72242723 21.3945179,5.6997742 21.3534497,5.65470412 L19.5388807,3.24475274 C19.474036,3.16735491 19.3973032,3.14824142 19.3088984,3.18670437 C19.2204935,3.22540328 19.176183,3.53239895 19.176183,3.63528143 L19.176183,7.77795317 C19.176183,7.92590573 19.1080961,8 18.9725708,8 L18.0165448,8 C17.8808034,8 17.8131488,7.92590573 17.8131488,7.77795317 L17.8131488,0.222282797 Z" id="Fill-5" fill="#000000"></path>
                    </g>
                </g>
            </g>
        </g>
    </g>
</svg>